<?xml version="1.0" encoding="UTF-8" standalone="no"?>
<!-- Created with Inkscape (http://www.inkscape.org/) -->

<svg
   xmlns:dc="http://purl.org/dc/elements/1.1/"
   xmlns:cc="http://creativecommons.org/ns#"
   xmlns:rdf="http://www.w3.org/1999/02/22-rdf-syntax-ns#"
   xmlns:svg="http://www.w3.org/2000/svg"
   xmlns="http://www.w3.org/2000/svg"
   xmlns:xlink="http://www.w3.org/1999/xlink"
   xmlns:sodipodi="http://sodipodi.sourceforge.net/DTD/sodipodi-0.dtd"
   xmlns:inkscape="http://www.inkscape.org/namespaces/inkscape"
   id="svg2876"
   version="1.1"
   inkscape:version="0.47 r22583"
   width="386"
   height="423"
   sodipodi:docname="Tux2.svg"
   inkscape:label="tux">
  <metadata
     id="metadata2882">
    <rdf:RDF>
      <cc:Work
         rdf:about="">
        <dc:format>image/svg+xml</dc:format>
        <dc:type
           rdf:resource="http://purl.org/dc/dcmitype/StillImage" />
        <dc:title></dc:title>
      </cc:Work>
    </rdf:RDF>
  </metadata>
  <defs
     id="defs2880">
    <inkscape:path-effect
       effect="skeletal"
       id="path-effect3278"
       is_visible="true"
       pattern="m -3.5847457,31.885594 c 0,-2.76 2.24,-5 5,-5 2.76,0 5,2.24 5,5 0,2.76 -2.24,5 -5,5 -2.76,0 -5,-2.24 -5,-5 z"
       copytype="single_stretched"
       prop_scale="1"
       scale_y_rel="false"
       spacing="0"
       normal_offset="0"
       tang_offset="0"
       prop_units="false"
       vertical_pattern="false"
       fuse_tolerance="0" />
    <inkscape:path-effect
       effect="skeletal"
       id="path-effect3274"
       is_visible="true"
       pattern="m 1.7923729,6.7923729 c 0,-2.76 2.24,-5 5,-5 2.76,0 5.0000001,2.24 5.0000001,5 0,2.76 -2.2400001,5.0000001 -5.0000001,5.0000001 -2.76,0 -5,-2.2400001 -5,-5.0000001 z"
       copytype="single_stretched"
       prop_scale="1"
       scale_y_rel="false"
       spacing="0"
       normal_offset="0"
       tang_offset="0"
       prop_units="false"
       vertical_pattern="false"
       fuse_tolerance="0" />
    <inkscape:path-effect
       effect="skeletal"
       id="path-effect3270"
       is_visible="true"
       pattern="M 0,5 C 0,2.24 2.24,0 5,0 7.76,0 10,2.24 10,5 10,7.76 7.76,10 5,10 2.24,10 0,7.76 0,5 z"
       copytype="single_stretched"
       prop_scale="1"
       scale_y_rel="false"
       spacing="0"
       normal_offset="0"
       tang_offset="0"
       prop_units="false"
       vertical_pattern="false"
       fuse_tolerance="0" />
    <inkscape:path-effect
       effect="skeletal"
       id="path-effect3266"
       is_visible="true"
       pattern="M 0,5 C 0,2.24 2.24,0 5,0 7.76,0 10,2.24 10,5 10,7.76 7.76,10 5,10 2.24,10 0,7.76 0,5 z"
       copytype="single_stretched"
       prop_scale="1"
       scale_y_rel="false"
       spacing="0"
       normal_offset="0"
       tang_offset="0"
       prop_units="false"
       vertical_pattern="false"
       fuse_tolerance="0" />
    <inkscape:path-effect
       effect="skeletal"
       id="path-effect3241"
       is_visible="true"
       pattern="m -1.7923729,28.300847 c 0,-2.76 2.24000002,-5 5,-5 2.76,0 5,2.24 5,5 0,2.76 -2.24,5 -5,5 -2.75999998,0 -5,-2.24 -5,-5 z"
       copytype="single_stretched"
       prop_scale="1"
       scale_y_rel="false"
       spacing="0"
       normal_offset="0"
       tang_offset="0"
       prop_units="false"
       vertical_pattern="false"
       fuse_tolerance="0" />
    <inkscape:path-effect
       effect="skeletal"
       id="path-effect3237"
       is_visible="true"
       pattern="m -5.3771187,26.508474 c 0,-2.76 2.2400001,-5 5.00000004,-5 2.75999996,0 4.99999996,2.24 4.99999996,5 0,2.76 -2.24,5 -4.99999996,5 -2.75999994,0 -5.00000004,-2.24 -5.00000004,-5 z"
       copytype="single_stretched"
       prop_scale="1"
       scale_y_rel="false"
       spacing="0"
       normal_offset="0"
       tang_offset="0"
       prop_units="false"
       vertical_pattern="false"
       fuse_tolerance="0" />
    <inkscape:path-effect
       effect="skeletal"
       id="path-effect3175"
       is_visible="true"
       pattern="M 0,5 C 0,2.24 2.24,0 5,0 7.76,0 10,2.24 10,5 10,7.76 7.76,10 5,10 2.24,10 0,7.76 0,5 z"
       copytype="single_stretched"
       prop_scale="1"
       scale_y_rel="false"
       spacing="0"
       normal_offset="0"
       tang_offset="0"
       prop_units="false"
       vertical_pattern="false"
       fuse_tolerance="0" />
    <inkscape:path-effect
       effect="skeletal"
       id="path-effect3171"
       is_visible="true"
       pattern="M 0,5 C 0,2.24 2.24,0 5,0 7.76,0 10,2.24 10,5 10,7.76 7.76,10 5,10 2.24,10 0,7.76 0,5 z"
       copytype="single_stretched"
       prop_scale="1"
       scale_y_rel="false"
       spacing="0"
       normal_offset="0"
       tang_offset="0"
       prop_units="false"
       vertical_pattern="false"
       fuse_tolerance="0" />
    <inkscape:perspective
       sodipodi:type="inkscape:persp3d"
       inkscape:vp_x="0 : 0.5 : 1"
       inkscape:vp_y="0 : 1000 : 0"
       inkscape:vp_z="1 : 0.5 : 1"
       inkscape:persp3d-origin="0.5 : 0.33333333 : 1"
       id="perspective2884" />
    <inkscape:perspective
       id="perspective2926"
       inkscape:persp3d-origin="0.5 : 0.33333333 : 1"
       inkscape:vp_z="1 : 0.5 : 1"
       inkscape:vp_y="0 : 1000 : 0"
       inkscape:vp_x="0 : 0.5 : 1"
       sodipodi:type="inkscape:persp3d" />
    <inkscape:perspective
       id="perspective2994"
       inkscape:persp3d-origin="0.5 : 0.33333333 : 1"
       inkscape:vp_z="1 : 0.5 : 1"
       inkscape:vp_y="0 : 1000 : 0"
       inkscape:vp_x="0 : 0.5 : 1"
       sodipodi:type="inkscape:persp3d" />
    <inkscape:perspective
       id="perspective2994-8"
       inkscape:persp3d-origin="0.5 : 0.33333333 : 1"
       inkscape:vp_z="1 : 0.5 : 1"
       inkscape:vp_y="0 : 1000 : 0"
       inkscape:vp_x="0 : 0.5 : 1"
       sodipodi:type="inkscape:persp3d" />
    <inkscape:perspective
       id="perspective2994-2"
       inkscape:persp3d-origin="0.5 : 0.33333333 : 1"
       inkscape:vp_z="1 : 0.5 : 1"
       inkscape:vp_y="0 : 1000 : 0"
       inkscape:vp_x="0 : 0.5 : 1"
       sodipodi:type="inkscape:persp3d" />
    <inkscape:perspective
       id="perspective2994-5"
       inkscape:persp3d-origin="0.5 : 0.33333333 : 1"
       inkscape:vp_z="1 : 0.5 : 1"
       inkscape:vp_y="0 : 1000 : 0"
       inkscape:vp_x="0 : 0.5 : 1"
       sodipodi:type="inkscape:persp3d" />
    <inkscape:perspective
       id="perspective2994-4"
       inkscape:persp3d-origin="0.5 : 0.33333333 : 1"
       inkscape:vp_z="1 : 0.5 : 1"
       inkscape:vp_y="0 : 1000 : 0"
       inkscape:vp_x="0 : 0.5 : 1"
       sodipodi:type="inkscape:persp3d" />
    <inkscape:perspective
       id="perspective3185"
       inkscape:persp3d-origin="0.5 : 0.33333333 : 1"
       inkscape:vp_z="1 : 0.5 : 1"
       inkscape:vp_y="0 : 1000 : 0"
       inkscape:vp_x="0 : 0.5 : 1"
       sodipodi:type="inkscape:persp3d" />
    <inkscape:path-effect
       effect="skeletal"
       id="path-effect3175-7"
       is_visible="true"
       pattern="m 1.874515,7.9976419 c 0,-2.76 2.24,-5 5,-5 2.76,0 5,2.24 5,5 0,2.7600001 -2.24,5.0000001 -5,5.0000001 -2.76,0 -5,-2.24 -5,-5.0000001 z"
       copytype="single_stretched"
       prop_scale="1"
       scale_y_rel="false"
       spacing="0"
       normal_offset="0"
       tang_offset="0"
       prop_units="false"
       vertical_pattern="false"
       fuse_tolerance="0" />
    <inkscape:path-effect
       effect="skeletal"
       id="path-effect3171-2"
       is_visible="true"
       pattern="m -1.7102308,27.713744 c 0,-2.76 2.24000004,-5 5,-5 2.76,0 5,2.24 5,5 0,2.76 -2.24,5 -5,5 -2.75999996,0 -5,-2.24 -5,-5 z"
       copytype="single_stretched"
       prop_scale="1"
       scale_y_rel="false"
       spacing="0"
       normal_offset="0"
       tang_offset="0"
       prop_units="false"
       vertical_pattern="false"
       fuse_tolerance="0" />
    <inkscape:perspective
       id="perspective3217"
       inkscape:persp3d-origin="0.5 : 0.33333333 : 1"
       inkscape:vp_z="1 : 0.5 : 1"
       inkscape:vp_y="0 : 1000 : 0"
       inkscape:vp_x="0 : 0.5 : 1"
       sodipodi:type="inkscape:persp3d" />
    <inkscape:path-effect
       effect="skeletal"
       id="path-effect3175-7-9"
       is_visible="true"
       pattern="m 0.09647974,28.462559 c 0,-2.76 2.23999996,-5 4.99999996,-5 2.7600005,0 5.0000003,2.24 5.0000003,5 0,2.76 -2.2399998,5 -5.0000003,5 -2.76,0 -4.99999996,-2.24 -4.99999996,-5 z"
       copytype="single_stretched"
       prop_scale="1"
       scale_y_rel="false"
       spacing="0"
       normal_offset="0"
       tang_offset="0"
       prop_units="false"
       vertical_pattern="false"
       fuse_tolerance="0" />
    <inkscape:perspective
       id="perspective2863"
       inkscape:persp3d-origin="0.5 : 0.33333333 : 1"
       inkscape:vp_z="1 : 0.5 : 1"
       inkscape:vp_y="0 : 1000 : 0"
       inkscape:vp_x="0 : 0.5 : 1"
       sodipodi:type="inkscape:persp3d" />
    <inkscape:perspective
       id="perspective2888"
       inkscape:persp3d-origin="0.5 : 0.33333333 : 1"
       inkscape:vp_z="1 : 0.5 : 1"
       inkscape:vp_y="0 : 1000 : 0"
       inkscape:vp_x="0 : 0.5 : 1"
       sodipodi:type="inkscape:persp3d" />
  </defs>
  <sodipodi:namedview
     pagecolor="#ffffff"
     bordercolor="#666666"
     borderopacity="1"
     objecttolerance="10"
     gridtolerance="10"
     guidetolerance="10"
     inkscape:pageopacity="0"
     inkscape:pageshadow="2"
     inkscape:window-width="1668"
     inkscape:window-height="968"
     id="namedview2878"
     showgrid="false"
     inkscape:zoom="0.55791962"
     inkscape:cx="193"
     inkscape:cy="279.61017"
     inkscape:window-x="0"
     inkscape:window-y="24"
     inkscape:window-maximized="1"
     inkscape:current-layer="layer1"
     inkscape:snap-object-midpoints="false" />
  <image
     xlink:href="file:///home/patriciasc/GHangTux/Tux0.png"
     width="380.62289"
     height="423"
     id="image2886"
     x="1.7923728"
     y="37.639832" />
  <g
     inkscape:groupmode="layer"
     id="layer2"
     inkscape:label="hut"
     style="display:none">
    <path
       style="fill:#aa0000;stroke:#000000;stroke-width:1.00396609px;stroke-linecap:butt;stroke-linejoin:miter;stroke-opacity:1"
       d="m 56.715298,129.97213 c 0.738466,-0.10645 6.066326,0.19403 6.33339,0 0.497598,-0.36152 -0.497598,-1.1723 0,-1.53383 0.577652,-0.41969 7.299257,0.41605 8.444519,0 0.890131,-0.32336 1.221,-1.21048 2.11113,-1.53383 1.688904,-0.61354 4.644486,0.61352 6.33339,0 0.890131,-0.32337 1.220999,-1.21048 2.11113,-1.53385 1.339928,-0.48676 9.871223,0.49727 10.555649,0 0.497598,-0.36152 -0.497598,-1.1723 0,-1.53384 0.653705,-0.47494 9.901944,0.47495 10.555644,0 0.4976,-0.36153 -0.49759,-1.17231 0,-1.53383 1.05557,-0.76693 5.27783,0.76691 6.33339,0 0.4976,-0.36154 -0.49759,-1.17232 0,-1.53385 0.6537,-0.47495 9.90194,0.47495 10.55566,0 0.49759,-0.36152 -0.4976,-1.1723 0,-1.53384 0.99519,-0.72305 2.96342,0.4573 4.22225,0 0.89013,-0.32336 1.16701,-1.30518 2.11113,-1.53384 0.9656,-0.23385 7.50512,0.34127 8.44453,0 0.89013,-0.32336 1.22099,-1.21047 2.11112,-1.53383 1.14526,-0.41605 7.86687,0.41969 8.44452,0 0.4976,-0.36153 -0.4976,-1.17231 0,-1.53384 0.4316,-0.31358 5.49635,0.30407 6.33339,0 0.89012,-0.32337 1.22099,-1.21048 2.11112,-1.53384 0.83704,-0.30408 5.90179,0.31357 6.33339,0 0.4976,-0.36153 -0.4976,-1.17231 0,-1.53385 0.74105,-0.5384 9.09742,0.52974 10.55564,0 0.89015,-0.32336 1.22101,-1.21047 2.11114,-1.53384 1.14526,-0.41604 7.86687,0.4197 8.44452,0 0.4976,-0.36152 -0.4976,-1.17231 0,-1.53384 0.6537,-0.47494 9.90194,0.47495 10.55564,0 0.49761,-0.36152 -0.49759,-1.1723 0,-1.53383 0.4316,-0.31358 5.49635,0.30407 6.33339,0 0.89013,-0.32337 1.221,-1.21048 2.11114,-1.53384 1.45823,-0.52974 9.8146,0.5384 10.55565,0 2.81484,-2.04512 -3.51855,-1.53384 2.11112,-1.53384 0.51201,0 6.2655,0.0493 6.33339,0 0.49761,-0.36153 -0.4976,-1.17231 0,-1.53384 0.50801,-0.3691 7.93652,0.36909 8.44452,0 0.4976,-0.36153 -0.49759,-1.17232 0,-1.53385 0.99521,-0.72306 3.22707,0.72306 4.22227,0 0.49759,-0.36153 -0.49761,-1.172311 0,-1.533841 0.99519,-0.72305 2.96342,0.45731 4.22225,0 0.89014,-0.32336 1.167,-1.30518 2.11114,-1.53384 1.33519,-0.32336 2.85685,0.24801 4.22225,0 1.52657,-0.27728 2.6957,-1.25655 4.22227,-1.53383 1.3654,-0.24801 2.88706,0.32336 4.22225,0 0.94413,-0.22866 1.22101,-1.21048 2.11114,-1.53384 0.83704,-0.30408 5.90179,0.31357 6.33339,0 0.49759,-0.36153 -0.4976,-1.17231 0,-1.53384 0.99519,-0.72306 2.96342,0.4573 4.22225,0 0.89013,-0.32337 1.28308,-1.13276 2.11113,-1.53384 -0.24041,-2.90575 4.92598,-1.02256 6.33339,-1.53384 0.89013,-0.32336 1.22101,-1.21048 2.11114,-1.53384 0.62941,-0.22865 1.48171,0.22865 2.11112,0 0.89013,-0.32336 1.221,-1.21048 2.11113,-1.53384 1.25884,-0.4573 2.96342,0.4573 4.22226,0 0.89013,-0.32336 1.221,-1.21048 2.11113,-1.53384 0.62942,-0.22865 1.48171,0.22865 2.11113,0 0.89013,-0.32336 1.22101,-1.21048 2.11114,-1.53384 1.25883,-0.4573 3.22706,0.72306 4.22225,0 0.4976,-0.36153 -0.49759,-1.17231 0,-1.53384 0.99519,-0.72306 2.96342,0.4573 4.22226,0 0.89013,-0.32336 1.221,-1.21048 2.11113,-1.53384 1.25884,-0.4573 3.22706,0.72306 4.22226,0 0.4976,-0.36153 -0.4976,-1.17231 0,-1.53384 0.9952,-0.72306 3.22706,0.72306 4.22226,0 0.4976,-0.36153 -0.49759,-1.17231 0,-1.53384 0.99519,-0.72306 3.22707,0.72306 4.22226,0 0.49759,-0.36153 -0.4976,-1.17231 0,-1.53384 0.49759,-0.36153 1.48171,0.22865 2.11113,0 0.89013,-0.32336 1.221,-1.21048 2.11113,-1.53384 1.25884,-0.4573 2.96342,0.45731 4.22226,0 0.89013,-0.32336 1.221,-1.21047 2.11113,-1.53384 0.62941,-0.22865 1.40742,0 2.11113,0 0.70371,-0.51128 1.221,-1.21047 2.11113,-1.53384 0.62942,-0.22865 1.61353,0.36153 2.11113,0 0.4976,-0.36152 -0.4976,-1.17231 0,-1.53384 0.4976,-0.36152 1.61353,0.36153 2.11112,0 0.49761,-0.36152 -0.49759,-1.1723 0,-1.53383 0.99521,-0.72306 3.22708,0.72305 4.22227,0 0.4976,-0.36153 -0.4976,-1.17231 0,-1.53384 0.99519,-0.72306 3.22706,0.72305 4.22226,0 0.49759,-0.36153 -0.4976,-1.17231 0,-1.53384 0.49759,-0.36153 1.61353,0.36153 2.11113,0 0.49759,-0.36153 -0.4976,-1.17231 0,-1.53384 0.49759,-0.36153 1.61352,0.36153 2.11113,0 0.4976,-0.36153 -0.49761,-1.17231 0,-1.53384 0.4976,-0.36153 1.61353,0.36153 2.11112,0 0.49761,-0.36153 -0.49759,-1.17231 0,-1.53384 0.49761,-0.36153 1.61354,0.36153 2.11114,0 0.99519,-0.72306 -0.9952,-2.34462 0,-3.06768 0.49759,-0.36153 1.61353,0.36153 2.11113,0 0.99519,-0.72306 -0.9952,-2.34462 0,-3.06768 0.4976,-0.36153 1.61353,0.36153 2.11112,0 0.49761,-0.36153 0,-1.02256 0,-1.53384 0,-0.51128 -0.7037,-1.53384 0,-1.53384 0.70372,0 0,2.04512 0,1.53384 0,-1.02256 0.62943,-2.15307 0,-3.06768 -0.3147,-0.4573 -1.61352,0.36153 -2.11112,0 -0.9952,-0.72306 0.99519,-2.34462 0,-3.06768 -0.4976,-0.36153 -1.61354,0.36153 -2.11113,0 -0.9952,-0.72306 0.99519,-2.34462 0,-3.06768 -0.4976,-0.36152 -1.61353,0.36153 -2.11114,0 -0.99519,-0.72305 0.99521,-2.34462 0,-3.06767 -0.49759,-0.36153 -1.61352,0.36152 -2.11112,0 -0.49761,-0.36153 0.4976,-1.17231 0,-1.53384 -0.9952,-0.72306 -3.22706,0.72305 -4.22226,0 -0.4976,-0.36153 0.49759,-1.17231 0,-1.53384 -0.9952,-0.72306 -3.22707,0.72306 -4.22226,0 -0.4976,-0.36153 0.4976,-1.17231 0,-1.53384 -0.0956,-0.0695 -9.56025,0 -10.55565,0 -0.77529,0 -8.35957,0.0617 -8.44452,0 -0.4976,-0.36153 0.4976,-1.17231 0,-1.53384 -0.31046,-0.22557 -6.33338,0.18045 -6.33338,0 0,-0.51128 2.81484,0 2.11112,0 -0.83456,0 -9.65402,-0.32754 -10.55565,0 -0.89013,0.32336 -1.221,1.21048 -2.11113,1.53384 -1.3269,0.48202 -7.11762,-0.48203 -8.44452,0 -0.89013,0.32336 -1.22099,1.21047 -2.11112,1.53384 -1.14527,0.41604 -7.86687,-0.4197 -8.44453,0 -0.49759,0.36153 0.4976,1.17231 0,1.53384 -1.05556,0.76692 -5.27783,-0.76692 -6.33338,0 -0.49761,0.36153 0.49759,1.17231 0,1.53384 -1.05557,0.76692 -5.27784,-0.76692 -6.33339,0 -0.49761,0.36152 0.49759,1.17231 0,1.53383 -0.99521,0.72306 -3.22708,-0.72305 -4.22227,0 -0.49759,0.36153 0.4976,1.17232 0,1.53384 -0.6537,0.47495 -9.90194,-0.47494 -10.55564,0 -0.49761,0.36153 0.62941,1.30519 0,1.53384 -1.25884,0.45731 -2.88707,-0.32336 -4.22227,0 -0.94412,0.22865 -1.167,1.30519 -2.11112,1.53384 -0.96561,0.23386 -7.50512,-0.34126 -8.44452,0 -0.89013,0.32336 -1.221,1.21048 -2.11114,1.53384 -4.13203,1.50107 -1.0736,-2.31387 -2.11113,-3.06768 -0.49759,-0.36153 -1.61353,0.36153 -2.11112,0 -0.49761,-0.36153 0.49759,-1.17231 0,-1.53384 -0.49761,-0.36152 -1.61354,0.36153 -2.11113,0 -0.9952,-0.72305 0.99519,-2.34462 0,-3.06767 -0.4976,-0.36153 -1.61354,0.36152 -2.11114,0 -0.99519,-0.72306 0.62943,-2.15308 0,-3.06768 -0.44506,-0.64673 -1.66605,-0.88712 -2.11112,-1.53384 -0.31471,-0.45731 0.3147,-1.07654 0,-1.53384 -0.44507,-0.64673 -1.66607,-0.88712 -2.11113,-1.53384 -0.31471,-0.4573 0.31471,-1.07654 0,-1.53384 -0.44507,-0.64672 -1.66607,-0.88712 -2.11114,-1.53384 -0.31471,-0.4573 0.4976,-1.17231 0,-1.53384 -0.49759,-0.36153 -1.61352,0.36153 -2.11113,0 -0.99519,-0.72306 0.9952,-2.34462 0,-3.06768 -0.4976,-0.36153 -1.61353,0.36153 -2.11112,0 -0.99519,-0.72306 0.99519,-2.34462 0,-3.06768 -0.4976,-0.36153 -1.61354,0.36153 -2.11113,0 -0.4976,-0.36153 0.31471,-1.07653 0,-1.53384 -0.44507,-0.64672 -1.55909,-0.93221 -2.11114,-1.53384 -0.87284,-0.95124 -0.99846,-2.25927 -2.11112,-3.06768 -0.49761,-0.36152 -1.48171,0.22866 -2.11113,0 -0.89013,-0.32336 -1.40742,-1.02255 -2.11114,-1.53383 -1.64896,-1.19807 -4.51169,-3.71916 -6.33338,-4.60152 -1.30927,-0.6341702 -3.1096,-0.7254402 -4.22226,-1.5338402 -0.4976,-0.36153 0.4976,-1.17231 0,-1.53384 -0.99519,-0.72306 -3.22706,0.72306 -4.22227,0 -0.49759,-0.36153 0.49761,-1.17231 0,-1.53384 -0.99519,-0.72306 -3.22706,0.72306 -4.22225,0 -0.4976,-0.36153 0.49759,-1.17231 0,-1.53384 -0.99519,-0.72306 -3.22707,0.72306 -4.22226,0 -0.49759,-0.36153 0.4976,-1.17231 0,-1.53384 -0.49759,-0.3615296 -1.40742,0 -2.11113,0 -4.92597,0 -9.85194,0 -14.77791,0 -0.99539,0 -10.45997,-0.0695 -10.55565,0 -0.4976,0.36153 0.4976,1.17231 0,1.53384 -0.9952,0.72306 -2.96343,-0.4573 -4.22225,0 -0.89013,0.32336 -1.22099,1.21048 -2.11112,1.53384 -0.62943,0.22865 -1.48172,-0.22865 -2.11114,0 -0.89013,0.32336 -1.221,1.21048 -2.11113,1.53384 -0.62941,0.22865 -1.61353,-0.36153 -2.11113,0 -0.4976,0.36153 0.4976,1.17231 0,1.53384 -0.4976,0.36153 -1.61353,-0.36153 -2.11113,0 -0.49759,0.36153 0.62942,1.3051902 0,1.5338402 -1.25883,0.4573 -2.88707,-0.32337 -4.22226,0 -0.94412,0.22865 -1.28308,1.13275 -2.11112,1.53384 -1.30928,0.63416 -2.913,0.89967 -4.22227,1.53384 -0.82806,0.40108 -1.22099,1.21047 -2.11112,1.53384 -2.912,1.05785 -1.88835,-1.85757 -4.22227,1.53383 -0.31471,0.45731 0.4976,1.17232 0,1.53384 -0.49759,0.36153 -1.48171,-0.22865 -2.11113,0 -0.89013,0.32337 -1.22099,1.21048 -2.11112,1.53384 -0.62943,0.22865 -1.48171,-0.22865 -2.11114,0 -8.78601,3.19174 2.25687,-0.10589 -2.11113,3.06768 -0.4976,0.36153 -1.48171,-0.22865 -2.11112,0 -0.89013,0.32336 -1.221,1.21048 -2.11114,1.53384 -0.62942,0.22865 -1.61353,-0.36153 -2.11113,0 -0.43158,0.31357 0.41852,3.99336 0,4.60152 -0.44506,0.64672 -1.66606,0.88712 -2.11113,1.53384 -0.62941,0.9146 0.9952,2.34462 0,3.06768 -0.49759,0.36153 -1.61353,-0.36153 -2.11113,0 -0.99519,0.72306 0.9952,2.34462 0,3.06768 -0.49759,0.36153 -1.61353,-0.36153 -2.11113,0 -1.05556,0.76692 1.05557,3.8346 0,4.60152 -0.49759,0.36152 -1.61353,-0.36153 -2.11113,0 -1.055559,0.76692 1.05557,3.83459 0,4.60151 -0.49759,0.36153 -1.613529,-0.36153 -2.111129,0 -0.0679,0.0493 0,4.22952 0,4.60152 0,0.56328 -0.085,6.07364 0,6.13536 0.4976,0.36153 1.613539,-0.36153 2.111129,0 2.13345,1.55005 -2.133439,1.51762 0,3.06768 0.4976,0.36153 1.61354,-0.36153 2.11113,0 0.4976,0.36153 -0.49759,1.17231 0,1.53384 0.4976,0.36153 1.61354,-0.36153 2.11113,0 0.4976,0.36153 -0.49759,1.17231 0,1.53384 0.4976,0.36153 1.61354,-0.36153 2.11113,0 2.13345,1.55005 -2.13344,1.51762 0,3.06768 0.4976,0.36153 1.61354,-0.36153 2.11113,0 0.9952,0.72306 -0.99519,2.34462 0,3.06768 0.4976,0.36153 1.61354,-0.36153 2.11113,0 0.4976,0.36153 0,1.02256 0,1.53383 0,0.56329 0.0849,6.07364 0,6.13536 -0.49759,0.36153 -1.61353,-0.36153 -2.11113,0 -3.55574,2.58343 3.55575,0.48426 0,3.06768 -0.49759,0.36153 -1.61353,-0.36153 -2.11113,0 -0.49759,0.36153 0.4976,1.17231 0,1.53384 -0.49759,0.36153 -1.61353,-0.36153 -2.11113,0 -0.49759,0.36153 0,1.02256 0,1.53384 -0.70371,0 -1.61353,-0.36153 -2.11113,0 -0.49759,0.36153 0.4976,1.17231 0,1.53384 -0.49759,0.36153 -1.61353,-0.36153 -2.11113,0 -2.814839,2.04512 4.47839,1.47181 -2.111129,3.06768 -1.33519,0.32336 -2.88706,-0.32336 -4.222255,0 -0.944126,0.22865 -1.283077,1.13276 -2.11113,1.53384 0.240416,2.90575 -4.92597,1.02256 -6.333389,1.53384 -0.890131,0.32336 -1.220999,1.21048 -2.11113,1.53384 -0.629418,0.22865 -1.481713,-0.22865 -2.11113,0 -0.890131,0.32336 -1.220999,1.21047 -2.11113,1.53384 -0.629417,0.22865 -1.613533,-0.36153 -2.11113,0 -0.497598,0.36153 0.497597,1.17231 0,1.53384 -0.995197,0.72305 -2.963425,-0.45731 -4.22226,0 -1.780261,0.64672 -2.334007,2.61037 -4.222259,3.06767 -1.335197,0.32337 -2.856862,-0.248 -4.22226,0 -1.526562,0.27729 -2.729466,1.17232 -4.22226,1.53384 -1.335196,0.32337 -3.227064,-0.72305 -4.22226,0 -0.497598,0.36153 0.497599,1.172311 0,1.533841 -0.995195,0.72306 -3.227064,-0.72306 -4.222259,0 -4.368004,3.17358 6.674886,-0.12405 -2.11113,3.06769 -0.629418,0.22865 -1.443532,-0.16168 -2.11113,0 -15.291792,3.70341 3.328423,-0.44221 -6.33339,3.06768 -0.629417,0.22865 -1.613531,-0.36153 -2.11113,0 -0.497598,0.36153 0.497599,1.17231 0,1.53383 -0.995195,0.72306 -3.227063,-0.72305 -4.222259,0 -0.497599,0.36153 0.497598,1.17232 0,1.53384 -0.497599,0.36153 -1.613532,-0.36152 -2.11113,0 -0.497599,0.36153 0,1.02256 0,1.53384 -0.70371,0 -1.613532,-0.36153 -2.11113,0 -0.497599,0.36154 0.497598,1.17232 0,1.53385 -0.497599,0.36153 -1.613532,-0.36153 -2.111129,0 -0.497597,0.36153 0.497597,1.17231 0,1.53384 -0.497597,0.36153 -1.613532,-0.36153 -2.11113,0 -0.497597,0.36153 0.497598,1.17231 0,1.53384 -0.497597,0.36152 -1.613532,-0.36153 -2.11113,0 -0.497597,0.36152 0.497598,1.17231 0,1.53383 -0.497597,0.36153 -1.613531,-0.36152 -2.11113,0 -0.497597,0.36153 0.314709,1.07654 0,1.53384 -0.445064,0.64673 -1.666064,0.88712 -2.11113,1.53384 -1.876559,2.72683 1.172851,0.85214 2.11113,1.53385 0.995197,0.72305 -0.995195,2.34461 0,3.06767 0.497599,0.36153 1.613533,-0.36152 2.11113,0 0.995197,0.72306 -0.995196,2.34463 0,3.06768 0.508004,0.36909 7.936515,-0.36909 8.444519,0 0.497598,0.36153 -0.497599,1.17231 0,1.53383 0.497598,0.36153 1.40742,0 2.11113,0 0.70371,0 1.40742,0 2.111129,0 3.518551,0 7.037101,0 19.000169,0 z"
       id="path2916" />
  </g>
  <g
     inkscape:groupmode="layer"
     id="layer1"
     inkscape:label="stroh"
     style="display:none">
    <path
       style="fill:none;stroke:#000000;stroke-width:1.50067985px;stroke-linecap:butt;stroke-linejoin:miter;stroke-opacity:1;display:inline"
       d="m 24.347179,162.46007 c 12.24632,44.30866 12.24632,44.30866 12.24632,44.30866"
       id="path2853" />
    <path
       sodipodi:type="arc"
       style="fill:#008000;fill-opacity:1"
       id="path2878"
       sodipodi:cx="36.743645"
       sodipodi:cy="180.13347"
       sodipodi:rx="9.8580513"
       sodipodi:ry="9.8580513"
       d="m 46.601696,180.13347 a 9.8580513,9.8580513 0 1 1 -19.716103,0 9.8580513,9.8580513 0 1 1 19.716103,0 z"
       transform="translate(-8.9618644,3.5847458)" />
    <path
       sodipodi:type="arc"
       style="fill:#ff0000;fill-opacity:1"
       id="path2878-7"
       sodipodi:cx="36.743645"
       sodipodi:cy="180.13347"
       sodipodi:rx="9.8580513"
       sodipodi:ry="9.8580513"
       d="m 46.601696,180.13347 a 9.8580513,9.8580513 0 1 1 -19.716103,0 9.8580513,9.8580513 0 1 1 19.716103,0 z"
       transform="translate(-15.235167,-18.819913)" />
  </g>
  <g
     inkscape:groupmode="layer"
     id="layer4"
     inkscape:label="left shoe"
     style="display:inline">
    <path
       style="fill:#008033;fill-rule:evenodd;stroke:none;display:inline"
       d="m 57.470872,382.98069 c 0.562025,-0.45249 2.292401,0.70337 5.123963,2.77736 1.41578,1.037 3.115066,2.29612 5.118434,3.62984 2.003368,1.33371 4.311239,2.74266 6.949335,4.02269 4.299124,2.10252 9.552521,3.87415 15.441708,4.59133 2e-6,0 3e-6,0 5e-6,0 3.63801,0.47315 7.515057,0.53101 11.578483,0.18149 4.06342,-0.34952 8.31334,-1.10532 12.66333,-2.16895 2.57067,-0.62856 5.09989,-1.34351 7.56749,-2.10135 5.77284,-1.80389 11.22886,-3.92521 16.33998,-5.99377 5.11112,-2.06856 9.87619,-4.08107 14.19411,-5.79995 2.44949,-0.97873 4.77778,-1.87891 6.95381,-2.64134 2.17603,-0.76244 4.19921,-1.38784 6.02738,-1.86193 1.51256,-0.40619 2.94963,-0.72127 4.22744,-0.90024 1.2778,-0.17898 2.39605,-0.22554 3.30267,-0.17203 1.81323,0.10701 2.75365,0.57714 2.77559,1.05973 0.0219,0.48259 -0.82717,0.9425 -2.25793,1.66567 -0.71538,0.36159 -1.57988,0.79894 -2.59484,1.34139 -1.01497,0.54245 -2.18026,1.19368 -3.53126,1.90958 -1.56631,0.85603 -3.31847,1.83311 -5.2511,2.92754 -1.93263,1.09443 -4.04566,2.30713 -6.35668,3.59432 -4.04889,2.26356 -8.64242,4.75352 -13.76773,7.24014 -5.12532,2.48662 -10.78542,4.96805 -16.9903,7.06383 -2.64262,0.90593 -5.40134,1.73172 -8.25513,2.42794 -4.82906,1.17811 -9.68877,1.91802 -14.41891,2.13618 -4.730148,0.21816 -9.32947,-0.086 -13.655242,-0.89268 -2e-6,0 -4e-6,0 -5e-6,0 -3.525257,-0.68114 -6.804233,-1.71763 -9.770163,-2.97894 -2.96593,-1.2613 -5.619057,-2.7468 -7.935148,-4.3264 -2.820273,-1.93566 -5.118954,-3.96795 -6.975634,-5.88562 -1.85668,-1.91767 -3.272546,-3.72137 -4.318682,-5.26878 -1.046137,-1.54742 -1.723544,-2.83955 -2.078321,-3.79024 -0.354776,-0.9507 -0.387665,-1.56057 -0.106653,-1.78681 0,0 0,0 0,0 z"
       id="path3169"
       inkscape:path-effect="#path-effect3171-2"
       inkscape:original-d="m 57.470872,382.98069 c 38.623637,47.97384 97.897298,-4.45112 118.263728,-5.37712" />
    <path
       style="fill:#008033;fill-rule:evenodd;stroke:none"
       d="m 105.75,412.24576 c 0.6505,-0.20082 1.31418,-0.26184 1.94955,-0.078 0.63536,0.18381 1.23922,0.61433 1.71976,1.24771 0.48054,0.63338 0.83332,1.46426 0.97611,2.32831 0.14279,0.86405 0.0722,1.75232 -0.22394,2.49135 -0.0119,0.0405 -0.0243,0.0808 -0.0371,0.12072 -0.23961,0.74821 -0.59868,1.31108 -1.02116,1.72182 -0.42248,0.41074 -0.90978,0.67608 -1.44422,0.86331 -0.53443,0.18722 -1.11837,0.30078 -1.74299,0.3547 -0.62462,0.0539 -1.29176,0.0473 -1.96836,-0.088 -0.6766,-0.13532 -1.29591,-0.39763 -1.81326,-0.80035 -0.51735,-0.40273 -0.93072,-0.94572 -1.21647,-1.55941 -0.28576,-0.61369 -0.44416,-1.29306 -0.48619,-1.92728 -0.042,-0.63423 0.0301,-1.21684 0.19023,-1.68576 0.009,-0.025 0.0173,-0.0496 0.0263,-0.0738 0.0904,-0.45734 0.32938,-0.74972 0.65584,-0.96402 0.32645,-0.2143 0.73722,-0.35895 1.18902,-0.5364 0.4518,-0.17745 0.94437,-0.39391 1.47965,-0.65311 0.53528,-0.25919 1.11678,-0.56089 1.76728,-0.76171 z"
       id="path3239"
       inkscape:path-effect="#path-effect3241"
       inkscape:original-d="m 105.75,412.24576 c 0.89862,2.9109 -1.19491,5.97457 -1.79237,8.96186" />
  </g>
  <g
     inkscape:groupmode="layer"
     id="layer6"
     inkscape:label="juice">
    <rect
       style="fill:#80b3ff"
       id="rect3260"
       width="53.771187"
       height="125.4661"
       x="5.3771186"
       y="213.29237" />
    <path
       sodipodi:type="arc"
       style="fill:#0044aa"
       id="path3262"
       sodipodi:cx="34.055084"
       sodipodi:cy="210.60382"
       sodipodi:rx="28.677965"
       sodipodi:ry="0.89618641"
       d="m 7.9367735,210.97392 a 28.677965,0.89618641 0 1 1 3.0309475,0.16152 l 23.087363,-0.53162 z"
       sodipodi:start="2.7158806"
       sodipodi:end="8.7897512"
       transform="matrix(1,0,0,4.9993446,-1.7923729,-842.27695)" />
    <path
       style="fill:#ff6600;fill-rule:evenodd;stroke:none"
       d="m 5.3827496,323.67457 c 0.1479339,-0.50596 0.7933346,-0.84103 1.8336693,-1.0643 1.0403347,-0.22327 2.4784617,-0.33523 4.2139621,-0.44416 1.7355,-0.10893 3.769422,-0.21419 5.973027,-0.47659 2.203605,-0.2624 4.57556,-0.68208 6.96092,-1.47753 1e-6,0 1e-6,0 2e-6,0 2.948394,-0.90789 6.017133,-2.44319 9.11041,-4.4877 1.032077,-0.68215 2.035766,-1.39747 3.008535,-2.12778 2.010782,-1.51986 3.918816,-3.16287 5.780327,-4.75425 1.861511,-1.59138 3.675808,-3.12892 5.427124,-4.48104 1.587979,-1.26387 3.190243,-2.3937 4.706332,-3.27338 1.516089,-0.87967 2.942804,-1.51142 4.169086,-1.89108 1.226282,-0.37966 2.249527,-0.51152 2.99249,-0.4536 0.742962,0.0579 1.204631,0.30068 1.36976,0.67888 0.165129,0.3782 0.02924,0.86809 -0.315025,1.46172 -0.344268,0.59363 -0.893606,1.29488 -1.578865,2.14615 -0.685259,0.85128 -1.504728,1.85722 -2.451,3.04472 -0.946271,1.1875 -2.019581,2.56029 -3.285423,4.06552 -1.332825,1.64044 -2.833683,3.45088 -4.574363,5.35651 -1.740681,1.90564 -3.723479,3.90686 -6.052892,5.85147 -1.142401,0.95808 -2.371078,1.88087 -3.681938,2.74285 -3.928828,2.58349 -8.251586,4.35257 -12.455301,5.16093 -1e-6,0 -2e-6,0 -3e-6,0 -3.40236,0.59339 -6.534192,0.57331 -9.246835,0.23738 -2.712643,-0.33593 -5.008575,-0.98463 -6.826708,-1.70761 -1.8181336,-0.72298 -3.1617351,-1.51941 -4.0129117,-2.23887 -0.8511766,-0.71946 -1.2123136,-1.36228 -1.0643797,-1.86824 z"
       id="path3264"
       inkscape:path-effect="#path-effect3266"
       inkscape:original-d="M 5.3827496,323.67457 C 37.308606,333.00908 46.126481,305.8849 60.928394,299.42204" />
    <path
       style="fill:#ff6600;fill-rule:evenodd;stroke:none"
       d="m 5.4058727,290.64613 c 0.3675836,-0.6794 1.7642573,-0.7255 3.9036083,-0.45054 2.139351,0.27495 5.027095,0.88799 8.368243,1.08641 10e-7,0 2e-6,0 2e-6,0 2.480316,0.14574 5.226303,0.0875 7.874372,-0.61256 2.014704,-0.50446 4.090351,-1.40422 6.099378,-2.64404 0.904527,-0.55467 1.802808,-1.1944 2.699808,-1.90518 0.982707,-0.7787 1.935461,-1.61911 2.865741,-2.48669 2.021453,-1.8807 3.876161,-3.92847 5.674127,-5.9245 1.797965,-1.99602 3.538646,-3.93718 5.229641,-5.65409 2.005477,-2.05433 4.023845,-3.84037 5.878775,-5.08695 1.752683,-1.20229 3.46129,-1.90511 4.700225,-2.10913 1.238935,-0.20401 1.998801,0.0431 2.218414,0.52567 0.219613,0.4826 -0.07983,1.15168 -0.618439,2.0513 -0.538611,0.89961 -1.293155,2.07293 -2.285159,3.58783 -1.021945,1.60147 -2.19267,3.58117 -3.654981,5.93699 -1.20864,1.9707 -2.585973,4.16824 -4.238301,6.5054 -1.652328,2.33716 -3.58272,4.81474 -5.954587,7.24688 -1.096736,1.12231 -2.302872,2.22306 -3.627536,3.26208 -1.209133,0.9484 -2.484768,1.81926 -3.817112,2.59242 -3.024705,1.74824 -6.305514,2.846 -9.516925,3.28256 -4.222073,0.53695 -8.009113,-0.0453 -11.071687,-1.03599 -10e-7,0 -10e-7,0 -2e-6,0 -2.027229,-0.65893 -3.750128,-1.46025 -5.185346,-2.27843 -1.435219,-0.81818 -2.583552,-1.65352 -3.4618264,-2.42264 -1.7565486,-1.53823 -2.4480165,-2.7874 -2.0804329,-3.4668 z"
       id="path3268"
       inkscape:path-effect="#path-effect3270"
       inkscape:original-d="M 5.4058727,290.64613 C 39.09571,308.87368 47.307949,271.57805 60.918207,265.38453" />
    <path
       style="fill:#ff6600;fill-rule:evenodd;stroke:none"
       d="m 8.9621816,254.04753 c 0.043463,-1.04852 1.9903134,-1.89114 5.0633874,-2.82829 3.073074,-0.93714 7.282363,-1.9798 11.717814,-3.86974 10e-7,0 10e-7,0 2e-6,0 2.78842,-1.16035 5.723204,-2.71241 8.718233,-4.60777 0.923177,-0.58422 1.826402,-1.18325 2.708346,-1.7886 1.860289,-1.27814 3.662401,-2.62366 5.429289,-3.91335 1.766888,-1.28969 3.497979,-2.52207 5.168759,-3.60385 1.662732,-1.09181 3.286584,-2.02341 4.792452,-2.74307 1.505868,-0.71966 2.892053,-1.22853 4.078052,-1.53054 2.371997,-0.60401 3.901589,-0.39485 4.264674,0.37457 0.363085,0.76942 -0.423118,1.98154 -1.84734,3.65492 -0.712112,0.83669 -1.586438,1.79839 -2.598453,2.8971 -1.012016,1.09871 -2.161936,2.33637 -3.461683,3.68722 -1.305074,1.37191 -2.759573,2.86765 -4.408166,4.43142 -1.648593,1.56377 -3.492846,3.19574 -5.594557,4.78671 -1.007627,0.76299 -2.069865,1.5027 -3.183721,2.20629 -3.613639,2.28262 -7.448312,3.95724 -11.139263,4.95119 -10e-7,0 -2e-6,0 -3e-6,0 -2.924344,0.7647 -5.671011,1.10614 -8.106718,1.17789 -2.435708,0.0718 -4.561383,-0.12417 -6.29407,-0.45197 -1.732686,-0.3278 -3.073791,-0.78637 -3.972553,-1.28103 -0.8987615,-0.49467 -1.3562129,-1.02484 -1.3344814,-1.5491 0,0 0,0 0,0 z"
       id="path3272"
       inkscape:path-effect="#path-effect3274"
       inkscape:original-d="M 8.9621816,254.04753 C 38.110394,255.25578 45.485089,236.8126 60.90319,229.53689" />
    <path
       style="fill:#ff6600;fill-rule:evenodd;stroke:none"
       d="m 59.161714,286.30491 c 0.324017,-0.28735 1.360662,0.2544 3.03185,1.50733 1.671188,1.25292 3.976091,3.22083 6.876367,5.72369 2.900275,2.50286 6.39396,5.54439 10.505339,8.82299 4.111378,3.27859 8.839013,6.79539 14.296589,10.08908 3.848632,2.32131 8.005031,4.51273 12.497171,6.00479 3.25391,1.07361 6.65012,1.82392 10.01898,1.82681 2.72608,0.0159 5.50537,-0.42789 8.08651,-1.40628 2.45125,-0.90633 4.82824,-2.34282 7.04742,-4.12548 1.91,-1.51381 3.67451,-3.29651 5.32747,-5.28484 2.62311,-3.15532 4.88766,-6.7228 6.98122,-10.35666 4.12525,-7.2711 7.27258,-14.85176 10.13243,-22.0984 3.31234,-8.41477 6.14388,-16.39478 8.88016,-23.4486 1.51301,-3.91346 2.98664,-7.59561 4.48586,-10.91374 1.49921,-3.31812 3.02134,-6.27288 4.52052,-8.79845 1.66948,-2.8254 3.41939,-5.15742 5.05738,-6.80403 0,0 0,0 0,0 0.7425,-0.76086 1.49019,-1.38907 2.183,-1.86733 0.69281,-0.47825 1.3302,-0.80887 1.86749,-1.01775 1.07459,-0.41776 1.72369,-0.36991 1.86071,-0.0977 0.13702,0.27221 -0.22103,0.74916 -0.8203,1.53936 -0.59927,0.79021 -1.40858,1.94917 -2.34679,3.56367 0,0 0,0 0,0 -1.00498,1.77401 -2.05387,4.08132 -3.17607,6.95109 -1.00043,2.57375 -2.03154,5.52859 -3.08004,8.85647 -1.04849,3.32788 -2.11217,7.03044 -3.29908,11.05517 -2.10866,7.1911 -4.44796,15.3592 -7.4854,24.16958 -2.59808,7.5592 -5.71783,15.65959 -10.11953,23.72555 -2.17505,4.04392 -4.76953,8.14535 -7.99201,11.9586 -2.03065,2.40293 -4.27168,4.6408 -6.74396,6.64106 -2.96817,2.37698 -6.32146,4.30182 -9.93041,5.59263 -3.8505,1.35342 -7.83279,1.89611 -11.67937,1.74542 -4.6832,-0.20119 -9.01876,-1.29385 -12.89824,-2.81148 -5.32437,-2.07382 -9.921559,-4.81245 -13.934669,-7.64704 -5.643973,-3.98693 -10.3241,-8.13704 -14.226635,-12.01182 -3.902534,-3.87478 -7.02804,-7.47649 -9.471022,-10.52979 -2.442983,-3.0533 -4.202225,-5.56233 -5.286153,-7.36481 -1.083928,-1.80249 -1.490804,-2.90174 -1.166787,-3.18909 z"
       id="path3276"
       inkscape:path-effect="#path-effect3278"
       inkscape:original-d="M 59.161714,286.30491 C 157.27552,396.93918 157.15999,236.97583 182.81818,224.06034" />
  </g>
  <g
     inkscape:groupmode="layer"
     id="layer5"
     inkscape:label="rigth shoe">
    <path
       style="fill:#217821;fill-rule:evenodd;stroke:none;display:inline"
       d="m 208.03845,382.1985 c 0.29907,-0.20164 0.86584,0.019 1.68357,0.58359 0.81774,0.56458 1.88817,1.47369 3.23249,2.61494 1.34431,1.14125 2.96373,2.51574 4.89507,3.96361 1.93133,1.44786 4.17527,2.96988 6.76984,4.34409 0,0 0,0 1e-5,0 2.1696,1.16212 4.59808,2.22586 7.26233,3.10159 2.66424,0.87574 5.56452,1.56339 8.6336,1.98508 5.19942,0.72233 10.95102,0.65258 16.98275,-0.0846 2.37881,-0.2938 4.796,-0.6958 7.24323,-1.19389 3.50732,-0.71384 6.93834,-1.59522 10.26753,-2.55849 6.21658,-1.79731 12.04041,-3.9062 17.3964,-5.97473 5.35598,-2.06853 10.24309,-4.09389 14.54051,-5.82788 2.33735,-0.94446 4.51644,-1.82103 6.51151,-2.57097 1.99508,-0.74994 3.80553,-1.37405 5.39476,-1.85179 1.69416,-0.51055 3.19542,-0.86205 4.38528,-0.99993 0,0 0,0 0,0 0.88242,-0.11241 1.72398,-0.10975 2.2661,0.0335 0.54213,0.14327 0.79697,0.39021 0.80488,0.63631 0.008,0.2461 -0.20713,0.48147 -0.54732,0.78466 -0.34019,0.30319 -0.7889,0.7095 -1.53422,1.2031 0,0 0,0 -10e-6,0 -0.88841,0.63587 -2.02253,1.43568 -3.46043,2.40201 -2.67932,1.80669 -6.22317,4.12822 -10.65702,6.75052 -4.04428,2.39744 -8.78668,5.01654 -14.17355,7.59762 -5.38686,2.58107 -11.42084,5.1222 -18.04929,7.24547 -3.54813,1.13582 -7.27674,2.14382 -11.15621,2.92932 -2.7069,0.54809 -5.41251,0.97195 -8.09851,1.26017 -6.8228,0.73995 -13.55548,0.49636 -19.68581,-0.75045 -3.64964,-0.74604 -7.05007,-1.86823 -10.1135,-3.2384 -3.06343,-1.37016 -5.79007,-2.98751 -8.14672,-4.71368 0,0 0,0 0,-1e-5 -2.79777,-2.06675 -5.0365,-4.23975 -6.81408,-6.28543 -1.77759,-2.04568 -3.09559,-3.96478 -4.04632,-5.60236 -0.95074,-1.63758 -1.53561,-2.99479 -1.81913,-3.98053 -0.28353,-0.98574 -0.26681,-1.60078 0.0323,-1.80242 0,0 0,0 0,0 z"
       id="path3173"
       inkscape:path-effect="#path-effect3175-7-9"
       inkscape:original-d="m 208.03845,382.1985 c 34.61218,51.3349 108.38912,-3.48215 118.26986,-3.79959" />
    <path
       style="fill:#008033;fill-rule:evenodd;stroke:none"
       d="m 261.68644,410.4534 c 1.37224,-0.14618 2.66505,0.16025 3.6046,0.86736 0.93956,0.70712 1.51415,1.78125 1.49181,2.84475 -0.0223,1.0635 -0.62255,1.90155 -1.54493,2.49144 -0.92238,0.58989 -2.17148,0.96594 -3.55148,0.96594 -1.38,0 -2.63271,-0.42745 -3.52363,-1.13715 -0.89093,-0.7097 -1.41287,-1.66773 -1.38277,-2.58505 0.0301,-0.91732 0.59026,-1.63435 1.46401,-2.22166 0.87375,-0.5873 2.07015,-1.07945 3.44239,-1.22563 z"
       id="path3235"
       inkscape:path-effect="#path-effect3237"
       inkscape:original-d="m 261.68644,410.4534 c 0.25315,2.37638 0,4.77966 0,7.16949" />
  </g>
  <g
     inkscape:groupmode="layer"
     id="layer3"
     inkscape:label="flower1"
     style="display:none">
    <path
       sodipodi:type="arc"
       style="fill:#44aa00"
       id="path2984"
       sodipodi:cx="234.80084"
       sodipodi:cy="38.536018"
       sodipodi:rx="12.546611"
       sodipodi:ry="17.027544"
       d="m 247.34745,38.536018 a 12.546611,17.027544 0 1 1 -25.09322,0 12.546611,17.027544 0 1 1 25.09322,0 z" />
    <path
       transform="translate(7.1694967,-13.442798)"
       sodipodi:type="arc"
       style="fill:#ab37c8"
       id="path2984-0"
       sodipodi:cx="234.80084"
       sodipodi:cy="38.536018"
       sodipodi:rx="12.546611"
       sodipodi:ry="17.027544"
       d="m 247.34745,38.536018 a 12.546611,17.027544 0 1 1 -25.09322,0 12.546611,17.027544 0 1 1 25.09322,0 z" />
    <path
       transform="translate(14.338988,13.442795)"
       sodipodi:type="arc"
       style="fill:#d42aff"
       id="path2984-3"
       sodipodi:cx="234.80084"
       sodipodi:cy="38.536018"
       sodipodi:rx="12.546611"
       sodipodi:ry="17.027544"
       d="m 247.34745,38.536018 a 12.546611,17.027544 0 1 1 -25.09322,0 12.546611,17.027544 0 1 1 25.09322,0 z" />
    <path
       transform="translate(-8.9618593,27.781778)"
       sodipodi:type="arc"
       style="fill:#aa00d4"
       id="path2984-9"
       sodipodi:cx="234.80084"
       sodipodi:cy="38.536018"
       sodipodi:rx="12.546611"
       sodipodi:ry="17.027544"
       d="m 247.34745,38.536018 a 12.546611,17.027544 0 1 1 -25.09322,0 12.546611,17.027544 0 1 1 25.09322,0 z" />
    <path
       transform="translate(-25.093216,13.442795)"
       sodipodi:type="arc"
       style="fill:#ab37c8"
       id="path2984-5"
       sodipodi:cx="234.80084"
       sodipodi:cy="38.536018"
       sodipodi:rx="12.546611"
       sodipodi:ry="17.027544"
       d="m 247.34745,38.536018 a 12.546611,17.027544 0 1 1 -25.09322,0 12.546611,17.027544 0 1 1 25.09322,0 z" />
    <path
       transform="translate(-16.131351,-11.650425)"
       sodipodi:type="arc"
       style="fill:#d400aa"
       id="path2984-6"
       sodipodi:cx="234.80084"
       sodipodi:cy="38.536018"
       sodipodi:rx="12.546611"
       sodipodi:ry="17.027544"
       d="m 247.34745,38.536018 a 12.546611,17.027544 0 1 1 -25.09322,0 12.546611,17.027544 0 1 1 25.09322,0 z" />
  </g>
</svg>
