<?xml version="1.0" encoding="UTF-8" standalone="no"?>
<!-- Created with Inkscape (http://www.inkscape.org/) -->

<svg
   xmlns:dc="http://purl.org/dc/elements/1.1/"
   xmlns:cc="http://creativecommons.org/ns#"
   xmlns:rdf="http://www.w3.org/1999/02/22-rdf-syntax-ns#"
   xmlns:svg="http://www.w3.org/2000/svg"
   xmlns="http://www.w3.org/2000/svg"
   xmlns:xlink="http://www.w3.org/1999/xlink"
   xmlns:sodipodi="http://sodipodi.sourceforge.net/DTD/sodipodi-0.dtd"
   xmlns:inkscape="http://www.inkscape.org/namespaces/inkscape"
   id="svg2876"
   version="1.1"
   inkscape:version="0.47 r22583"
   width="386"
   height="423"
   sodipodi:docname="Tux7.svg"
   inkscape:label="tux">
  <metadata
     id="metadata2882">
    <rdf:RDF>
      <cc:Work
         rdf:about="">
        <dc:format>image/svg+xml</dc:format>
        <dc:type
           rdf:resource="http://purl.org/dc/dcmitype/StillImage" />
        <dc:title />
      </cc:Work>
    </rdf:RDF>
  </metadata>
  <defs
     id="defs2880">
    <inkscape:perspective
       sodipodi:type="inkscape:persp3d"
       inkscape:vp_x="0 : 0.5 : 1"
       inkscape:vp_y="0 : 1000 : 0"
       inkscape:vp_z="1 : 0.5 : 1"
       inkscape:persp3d-origin="0.5 : 0.33333333 : 1"
       id="perspective2884" />
    <inkscape:perspective
       id="perspective2926"
       inkscape:persp3d-origin="0.5 : 0.33333333 : 1"
       inkscape:vp_z="1 : 0.5 : 1"
       inkscape:vp_y="0 : 1000 : 0"
       inkscape:vp_x="0 : 0.5 : 1"
       sodipodi:type="inkscape:persp3d" />
  </defs>
  <sodipodi:namedview
     pagecolor="#ffffff"
     bordercolor="#666666"
     borderopacity="1"
     objecttolerance="10"
     gridtolerance="10"
     guidetolerance="10"
     inkscape:pageopacity="0"
     inkscape:pageshadow="2"
     inkscape:window-width="1668"
     inkscape:window-height="968"
     id="namedview2878"
     showgrid="false"
     inkscape:zoom="1.4142136"
     inkscape:cx="346.97178"
     inkscape:cy="205.20644"
     inkscape:window-x="0"
     inkscape:window-y="24"
     inkscape:window-maximized="1"
     inkscape:current-layer="svg2876" />
  <image
     xlink:href="file:///home/patriciasc/GHangTux/Tux0.png"
     width="380.62289"
     height="423"
     id="image2886"
     x="5.3771186"
     y="16.131359" />
  <path
     style="fill:#000000"
     d="m 96.659957,349.30434 c 2.710964,-0.41068 7.147083,-0.41068 9.858053,0 2.71096,0.41068 0.4929,0.74669 -4.92903,0.74669 -5.421926,0 -7.639987,-0.33601 -4.929023,-0.74669 z"
     id="path3453" />
  <path
     style="fill:#000000"
     d="m 103.38136,295.02458 c 0,-3.53923 1.19491,-3.58475 94.09957,-3.58475 92.90466,0 94.09958,0.0455 94.09958,3.58475 0,3.53922 -1.19492,3.58474 -94.09958,3.58474 -92.90466,0 -94.09957,-0.0455 -94.09957,-3.58474 z"
     id="path3455" />
  <path
     style="fill:#000000"
     d="m 149.53496,297.23427 c -27.53773,-0.29727 -44.36123,-1.14694 -44.36123,-2.24047 0,-1.75226 36.91385,-2.22771 137.07263,-1.76551 43.37447,0.20016 49.40681,0.52871 47.35626,2.57925 -1.11318,1.1132 -87.54986,1.99364 -140.06766,1.42673 z"
     id="path3457" />
  <path
     style="fill:#000000"
     d="m 201.62579,234.65188 c 1.29387,-0.51777 2.83979,-0.45409 3.43539,0.1415 0.59559,0.59559 -0.46303,1.01922 -2.35249,0.94139 -2.08802,-0.086 -2.51273,-0.51072 -1.0829,-1.08289 z"
     id="path3459" />
  <path
     style="fill:#000000"
     d="m 105.17373,236.77246 0,-4.48093 29.12606,-0.21207 c 17.32954,-0.12617 26.94824,-0.76622 23.74894,-1.58031 -3.85554,-0.98106 -4.32047,-1.42825 -1.64301,-1.58031 2.05376,-0.11663 4.24447,-0.72242 4.86824,-1.34619 1.56627,-1.56627 -6.70087,-7.82773 -10.33512,-7.82773 -1.62785,0 -2.5018,-0.74094 -1.94212,-1.64653 0.55969,-0.90559 -1.25908,-2.14657 -4.0417,-2.75773 -5.245,-1.152 -21.85756,-14.40255 -21.85756,-17.43409 0,-0.94792 3.00676,0.75494 6.68168,3.78413 3.67493,3.02918 7.70777,5.50761 8.96187,5.50761 1.2541,0 2.28018,0.80656 2.28018,1.79237 0,0.9858 1.2499,1.79237 2.77756,1.79237 4.11305,0 13.23673,5.10205 18.54686,10.37158 6.47968,6.43014 11.29698,16.96531 8.55506,18.70948 -1.15374,0.73392 -16.41428,1.34674 -33.91232,1.36183 l -31.81462,0.0274 0,-4.48093 z"
     id="path3461" />
  <path
     style="fill:#000000"
     d="m 103.38136,261.86568 0,-4.48093 94.09957,0 94.09958,0 0,4.48093 0,4.48093 -94.09958,0 -94.09957,0 0,-4.48093 z"
     id="path3463" />
  <path
     style="fill:#000000"
     d="m 101.58898,275.30848 c 0,-3.53966 1.19492,-3.58475 94.99577,-3.58475 93.80084,0 94.99576,0.0451 94.99576,3.58475 0,3.53965 -1.19492,3.58474 -94.99576,3.58474 -93.80085,0 -94.99577,-0.0451 -94.99577,-3.58474 z"
     id="path3465" />
  <path
     style="fill:#000000"
     d="m 213.50096,244.14854 c 0.25807,-2.35089 2.04115,-6.58537 3.9624,-9.40996 1.92126,-2.82459 4.56783,-7.55532 5.88127,-10.51273 3.04884,-6.86492 4.71858,-2.78215 2.02373,4.94831 -1.36909,3.92737 -1.41725,5.96618 -0.15089,6.3883 1.02297,0.34099 1.40404,1.35766 0.84681,2.25927 -0.59796,0.96753 12.16531,1.63929 31.14641,1.63929 l 32.15955,0 0.85658,4.48093 0.85658,4.48093 -39.02582,0 -39.02582,0 0.4692,-4.27434 0,0 z"
     id="path3467" />
  <path
     style="fill:#000000"
     d="m 214.50847,245.66292 c 0,-1.51798 1.74925,-6.15575 3.88721,-10.30615 l 3.88721,-7.54618 1.53048,5.78402 1.53049,5.78402 31.77404,0.48929 c 31.41733,0.48379 31.78048,0.53456 32.3468,4.52212 l 0.57276,4.03284 -37.76449,0 c -32.80776,0 -37.7645,-0.36225 -37.7645,-2.75996 z"
     id="path3469" />
  <path
     style="fill:#000000"
     d="m 103.38136,252.00763 c 0,-3.47314 1.19491,-3.58475 38.37818,-3.58475 l 38.37819,0 -0.4615,-4.20411 c -0.55854,-5.08825 -1.67728,-7.04887 -9.61818,-16.85627 -3.39231,-4.18967 -5.36127,-7.61758 -4.37547,-7.61758 0.98581,0 4.77677,3.64207 8.42438,8.09348 11.65596,14.22457 23.6181,17.16703 35.90172,8.83114 5.58247,-3.78836 6.53724,-4.02165 5.50172,-1.34428 -0.68913,1.78176 -1.70059,5.45763 -2.24768,8.1686 l -0.99471,4.92902 39.65625,0 c 38.46133,0 39.65625,0.10801 39.65625,3.58475 0,3.53922 -1.19492,3.58474 -94.09958,3.58474 -92.90466,0 -94.09957,-0.0455 -94.09957,-3.58474 z"
     id="path3471" />
  <path
     style="fill:#000000"
     d="m 150.43114,254.28017 c -24.89157,-0.29795 -45.25741,-1.25066 -45.25741,-2.11714 0,-0.86648 16.93792,-2.16523 37.63983,-2.88612 41.32041,-1.43886 40.69834,-1.22056 34.94023,-12.26124 -3.86339,-7.40772 -3.4231,-7.54249 3.83152,-1.17286 5.86242,5.14728 7.42042,5.6436 15.68326,4.99612 5.04582,-0.39539 10.69615,-1.39913 12.55628,-2.23052 2.99591,-1.33904 3.28715,-0.86507 2.55089,4.15142 -0.45714,3.11468 -0.16428,5.66305 0.65079,5.66305 0.81507,0 1.48194,-1.24198 1.48194,-2.75996 0,-1.51798 1.74925,-6.15575 3.88721,-10.30615 l 3.88721,-7.54618 1.53048,5.78402 1.53049,5.78402 31.77404,0.48929 c 31.26794,0.48149 31.78305,0.55254 32.3387,4.4603 0.54891,3.86029 0.0242,3.98712 -18.81991,4.54836 l -19.38457,0.57734 19.26801,0.38067 c 11.39664,0.22516 19.268,1.11289 19.268,2.17304 0,1.14497 -15.69957,1.80121 -43.46504,1.81685 -23.90577,0.0134 -45.07818,0.24338 -47.04979,0.51094 -1.97161,0.26756 -23.95058,0.2427 -48.84216,-0.0553 l 0,1e-5 z"
     id="path3473" />
  <path
     style="fill:#000000"
     d=""
     id="path3475" />
  <path
     style="fill:#000000"
     d=""
     id="path3477" />
  <path
     style="fill:#000000"
     d="m 108.23914,226.91441 c 0.75778,-2.89779 2.5289,-3.61899 9.24215,-3.76341 8.05399,-0.17327 19.99576,-2.83953 14.57803,-3.25487 -2.16497,-0.16597 -2.22281,-0.50134 -0.29701,-1.7221 1.85368,-1.17503 1.40451,-2.2924 -1.99713,-4.96813 -5.56735,-4.37928 -10.88697,-14.36575 -8.45352,-15.86971 0.98219,-0.60702 1.7858,0.086 1.7858,1.54005 0,2.85505 9.74123,11.14184 19.50207,16.59025 3.33259,1.86023 7.36543,4.18903 8.96186,5.17511 8.21021,5.07127 8.10296,4.89865 4.62392,7.44259 -2.35944,1.72526 -9.81153,2.41496 -26.09314,2.41496 -21.90803,0 -22.75417,-0.1388 -21.85303,-3.58474 z"
     id="path3479" />
  <path
     style="fill:#000000"
     d="m 109.8304,218.4209 c 0.63272,-2.72211 2.26351,-5.84478 3.62398,-6.93926 1.36047,-1.09448 2.47359,-3.71583 2.47359,-5.82521 0,-2.21419 1.13638,-3.83524 2.68855,-3.83524 1.47871,0 2.68856,0.7785 2.68856,1.73 0,0.9515 2.36382,4.42224 5.25293,7.71276 2.88911,3.29051 4.70388,6.82602 4.03284,7.85668 -0.67105,1.03066 -5.87551,2.40845 -11.56547,3.06175 l -10.34538,1.18782 1.1504,-4.9493 0,0 z"
     id="path3481" />
  <path
     style="fill:#000000"
     d=""
     id="path3483" />
  <path
     style="fill:#000000"
     d="m 103.38136,261.86568 0,-4.48093 94.09957,0 94.09958,0 0,4.48093 0,4.48093 -94.09958,0 -94.09957,0 0,-4.48093 z"
     id="path3485" />
  <path
     style="fill:#000000"
     d=""
     id="path3487" />
  <path
     style="fill:#000000"
     d="m 90.834745,281.58178 c 0,-9.75847 0.05431,-9.85805 5.377119,-9.85805 5.322806,0 5.377116,0.0996 5.377116,9.85805 0,9.75847 -0.0543,9.85805 -5.377116,9.85805 -5.322805,0 -5.377119,-0.0996 -5.377119,-9.85805 z"
     id="path3489" />
  <path
     style="fill:#000000"
     d="m 91.903966,288.13506 c -0.514092,-0.83182 -0.45616,-4.46137 0.128737,-8.06568 0.783178,-4.82615 1.946408,-6.55328 4.413679,-6.55328 2.775725,0 3.350228,1.38312 3.350228,8.06568 0,6.78902 -0.550663,8.06568 -3.478966,8.06568 -1.913431,0 -3.899586,-0.68058 -4.413678,-1.5124 z"
     id="path3491" />
  <path
     style="fill:#000000"
     d="m 105.17373,306.675 c 0,-2.35503 11.45127,-2.68856 92.3072,-2.68856 80.85593,0 92.3072,0.33353 92.3072,2.68856 0,2.35503 -11.45127,2.68856 -92.3072,2.68856 -80.85593,0 -92.3072,-0.33353 -92.3072,-2.68856 z"
     id="path3493" />
  <path
     style="fill:#000000"
     d="m 135.68481,317.09935 c -15.25757,-0.36523 -28.52562,-1.44863 -29.48454,-2.40755 -1.12974,-1.12974 31.00319,-1.74349 91.28066,-1.74349 56.17294,0 92.34961,0.64844 91.3214,1.63687 -1.87572,1.80315 -109.20114,3.56542 -153.11752,2.51417 l 0,0 z"
     id="path3495" />
  <path
     style="fill:#000000"
     d="m 111.18767,321.48952 c 2.6206,-1.68193 32.06214,-1.57743 41.48394,0.14726 4.4799,0.82005 -2.34137,1.2856 -18.18309,1.24098 -13.94393,-0.0393 -24.42931,-0.66398 -23.30085,-1.38824 z"
     id="path3497" />
  <path
     style="fill:#000000"
     d="m 151.52574,323.89478 c 2.22436,-1.40932 9.21155,-0.71679 9.21155,0.913 0,0.37792 -2.62135,0.67479 -5.82521,0.65969 -3.96051,-0.0187 -5.04451,-0.52209 -3.38634,-1.57269 z"
     id="path3499" />
  <path
     style="fill:#000000"
     d="m 180.10372,327.14548 c -22.76578,-3.33881 -22.61509,-5.10409 0.34967,-4.09622 22.01226,0.96607 59.61515,-1.70686 60.48986,-4.29981 0.56891,-1.68645 44.65119,0.16194 46.43636,1.94711 0.73513,0.73513 -6.28625,0.81877 -15.60307,0.18587 -13.78648,-0.93654 -22.13881,-0.28072 -44.87059,3.52324 -29.74027,4.97677 -31.03329,5.05246 -46.80223,2.73981 z"
     id="path3501" />
  <path
     style="fill:#000000"
     d=""
     id="path3503" />
  <path
     style="fill:#000000"
     d="m 178.54935,332.62346 c -7.21402,-2.64566 -11.98848,-5.18626 -10.60993,-5.64578 1.37856,-0.45952 4.55652,0.18219 7.06213,1.42603 10.57726,5.25076 21.22297,6.90077 29.19805,4.5255 13.18797,-3.92785 17.34004,-4.37214 10.30887,-1.10309 -12.58428,5.85091 -21.63229,6.05153 -35.95912,0.79734 z"
     id="path3505" />
  <path
     style="fill:#000000"
     d="m 154.46398,320.1178 c -2.95741,-0.75254 14.38379,-1.35591 38.53602,-1.34083 27.53716,0.0172 40.5711,0.54797 34.95127,1.42329 -11.44555,1.78272 -66.39959,1.72105 -73.48729,-0.0825 z"
     id="path3507" />
  <path
     style="fill:#000000"
     d="m 190.56749,319.22161 c -2.19146,-2.19146 -8.67736,-2.68856 -35.07929,-2.68856 -20.39892,0 -32.39074,-0.66358 -32.39074,-1.79237 0,-0.98581 -4.03284,-1.79237 -8.96187,-1.79237 -4.92902,0 -8.96186,-0.80657 -8.96186,-1.79238 0,-1.17171 31.96398,-1.79237 92.3072,-1.79237 60.34322,0 92.3072,0.62066 92.3072,1.79237 0,1.138 -16.52292,1.92502 -45.25741,2.15569 -35.47757,0.2848 -40.41591,0.57574 -22.85275,1.34634 l 22.40466,0.98302 -21.36152,0.89413 c -14.83055,0.62076 -21.58911,1.57912 -22.10593,3.13459 -1.02156,3.07458 -6.78191,2.81768 -10.04769,-0.44809 z"
     id="path3509" />
  <path
     style="fill:#000000"
     d="m 181.79767,297.42227 c 1.23226,-0.49723 3.24867,-0.49723 4.48093,0 1.23226,0.49723 0.22405,0.90405 -2.24047,0.90405 -2.46451,0 -3.47272,-0.40682 -2.24046,-0.90405 z"
     id="path3511" />
  <path
     style="fill:#000000"
     d="m 149.53496,297.23427 c -27.53773,-0.29727 -44.36123,-1.14694 -44.36123,-2.24047 0,-1.75226 36.91385,-2.22771 137.07263,-1.76551 43.37447,0.20016 49.40681,0.52871 47.35626,2.57925 -1.11318,1.1132 -87.54986,1.99364 -140.06766,1.42673 z"
     id="path3513" />
  <path
     style="fill:#000000"
     d="m 171.15545,292.00781 c 1.29387,-0.51776 2.8398,-0.45409 3.43539,0.1415 0.59559,0.59559 -0.46303,1.01922 -2.35249,0.94139 -2.08802,-0.086 -2.51273,-0.51072 -1.0829,-1.08289 z"
     id="path3515" />
  <path
     style="fill:#000000"
     d="m 103.38136,286.9589 0,-4.48093 94.09957,0 94.09958,0 0,4.48093 0,4.48093 -94.09958,0 -94.09957,0 0,-4.48093 z"
     id="path3517" />
  <path
     style="fill:#000000"
     d="m 148.63877,277.51868 c -28.1342,-0.29737 -45.25741,-1.14505 -45.25741,-2.24046 0,-1.73029 32.24934,-2.13999 138.84076,-1.76386 43.35899,0.153 49.46871,0.48888 47.35435,2.60324 -1.12736,1.12736 -86.51963,1.97626 -140.9377,1.40108 z"
     id="path3519" />
  <path
     style="fill:#000000"
     d="m 103.38136,261.86568 0,-4.48093 94.09957,0 94.09958,0 0,4.48093 0,4.48093 -94.09958,0 -94.09957,0 0,-4.48093 z"
     id="path3521" />
  <path
     style="fill:#000000"
     d="m 230.35928,230.94725 c -1.03575,-4.96289 -0.73065,-11.20233 0.54777,-11.20233 0.83883,0 1.52515,-1.05895 1.52515,-2.35323 0,-4.02427 9.68536,-11.86421 16.1962,-13.11022 3.41465,-0.65347 9.63638,-3.07153 13.82605,-5.37345 7.69697,-4.22893 10.25844,-3.43286 4.48093,1.39261 -4.41217,3.68511 -12.43448,6.89768 -17.22463,6.89768 -2.2337,0 -6.37949,2.4197 -9.21287,5.37711 -2.83338,2.95742 -4.21945,5.37712 -3.08015,5.37712 1.1393,0 1.61612,1.18659 1.0596,2.63686 -0.85517,2.22854 2.83109,2.71426 23.80519,3.13666 24.19807,0.48732 24.83134,0.60038 25.38981,4.53263 l 0.57275,4.03284 -28.80262,0 c -15.84145,0 -28.92888,-0.60493 -29.08318,-1.34428 z"
     id="path3523" />
  <path
     style="fill:#000000"
     d=""
     id="path3525" />
  <path
     style="fill:#000000"
     d="m 249.45975,219.74492 8.96186,-1.2292 -9.3537,-0.28159 c -7.21332,-0.21715 -9.1331,-0.85649 -8.38962,-2.79396 0.53025,-1.38181 3.931,-3.06898 7.55722,-3.74926 3.62623,-0.68028 6.99827,-1.76778 7.49343,-2.41665 0.87886,-1.15168 15.85333,-9.24545 17.10522,-9.24545 0.90874,0 13.36923,18.9665 13.36923,20.34972 0,0.63732 -10.28374,1.03204 -22.85276,0.87717 -16.73237,-0.20617 -20.4526,-0.61079 -13.89088,-1.51078 z"
     id="path3527" />
  <path
     style="fill:#000000"
     d=""
     id="path3529" />
  <path
     style="fill:#000000"
     d="m 103.38136,261.86568 0,-4.48093 94.09957,0 94.09958,0 0,4.48093 0,4.48093 -94.09958,0 -94.09957,0 0,-4.48093 z"
     id="path3531" />
  <path
     style="fill:#000000"
     d="m 291.92993,270.82754 c 0.0365,-2.95741 0.43823,-3.95027 0.89268,-2.20635 0.45444,1.74392 0.42455,4.16362 -0.0664,5.37712 -0.49097,1.21349 -0.86279,-0.21335 -0.82626,-3.17077 z"
     id="path3533" />
  <path
     style="fill:#000000"
     d="m 301.83296,280.15754 c -0.97016,-28.32816 -2.64606,-36.5214 -11.17572,-54.63642 -2.44962,-5.20241 -4.45385,-9.89649 -4.45385,-10.43128 0,-4.9574 -28.35024,-37.44741 -34.33285,-39.34622 -4.23534,-1.34424 -4.24126,-4.14347 -0.0122,-5.79481 5.47155,-2.13653 14.07609,-10.25339 17.13014,-16.15926 1.6781,-3.24509 2.87598,-9.92844 2.87598,-16.046 0,-8.35086 -0.9841,-12.00217 -4.8358,-17.94238 -15.34683,-23.668322 -54.34215,-21.440506 -67.25807,3.84247 l -2.63999,5.16779 -2.15926,-8.5752 c -1.18759,-4.71635 -3.38629,-10.94801 -4.886,-13.84812 -3.49674,-6.761959 -1.82204,-8.507447 2.83348,-2.95325 3.06364,3.65503 3.85861,3.89055 5.39449,1.59819 1.66565,-2.48604 2.67191,-1.24284 1.9941,2.46364 -0.3399,1.85866 4.92412,0.7436 15.99349,-3.38785 10.14971,-3.78822 33.87403,-2.82971 42.56408,1.71966 3.20125,1.6759 7.63737,2.81233 9.85805,2.5254 2.22069,-0.28693 5.05152,0.10948 6.29074,0.8809 3.50066,2.17918 4.6309,-3.21279 3.41124,-16.27383 -1.81363,-19.421731 -13.00442,-37.198718 -30.48118,-48.420503 -4.98969,-3.203867 -8.06127,-5.825212 -6.82574,-5.825212 2.66047,0 12.63565,4.991596 15.68741,7.85001 1.17913,1.104422 5.72446,4.812459 10.10072,8.240081 21.75879,17.042135 35.82261,46.275274 38.06037,79.112534 1.3725,20.14032 5.70806,41.9869 9.47276,47.73255 1.50148,2.29156 2.87062,5.54937 3.04253,7.23959 0.73068,7.18409 3.30051,16.62812 4.77221,17.53768 0.87405,0.54019 1.58918,2.52648 1.58918,4.41396 0,3.58898 11.08255,15.57388 21.49231,23.24224 6.40555,4.71865 27.40385,25.20107 32.70942,31.9058 4.39046,5.54827 0.98226,4.90726 -5.34769,-1.00579 -7.08897,-6.62209 -34.29668,-20.14577 -40.53042,-20.14577 -3.97314,0 -4.77414,0.64998 -3.96043,3.21376 1.17013,3.68676 -1.6159,27.80814 -4.4106,38.1869 -1.09876,4.08046 -2.97422,6.9934 -4.50261,6.9934 -1.44071,0 -2.63401,0.60493 -2.65178,1.34428 -0.0177,0.73936 -3.14694,3.92966 -6.9537,7.08954 l -6.9214,5.74525 -0.93336,-27.25373 0,0 z"
     id="path3535" />
  <path
     style="fill:#000000"
     d="m 302.33475,286.98455 c 0,-24.40463 -3.53533,-43.77418 -10.90505,-59.7471 -2.87447,-6.23006 -5.22631,-11.73071 -5.22631,-12.22367 0,-4.71789 -26.30728,-34.71561 -34.95127,-39.85432 -3.50718,-2.08497 -3.51089,-2.17831 -0.17148,-4.31412 14.63122,-9.35779 20.78377,-18.97248 20.78377,-32.47914 0,-10.02706 -2.46246,-16.65793 -8.6278,-23.23284 -17.52839,-18.69281 -51.73461,-14.10363 -63.43276,8.51028 l -2.6733,5.16779 -2.15926,-8.5752 c -1.18759,-4.71635 -3.38629,-10.94801 -4.886,-13.84812 -3.51465,-6.796604 -1.41542,-8.928456 3.19354,-3.24316 2.93123,3.61578 3.84282,3.93027 5.19538,1.79237 1.48041,-2.33996 2.45702,-1.14388 1.90754,2.3362 -0.31952,2.02359 1.6473,1.67931 12.79979,-2.24047 12.41812,-4.36462 31.46883,-4.62766 41.65532,-0.57515 3.94322,1.56874 9.66845,3.02323 12.72273,3.2322 3.05428,0.20898 6.48789,0.9576 7.63025,1.66362 3.27127,2.02176 4.42902,-3.60987 3.18634,-15.49923 -2.08293,-19.928405 -13.34462,-37.888109 -31.15547,-49.685522 -4.52848,-2.999542 -7.2487,-5.453713 -6.04493,-5.453713 3.89392,0 13.42423,5.696365 23.67066,14.1482 24.44837,20.166383 37.81041,47.161635 40.1201,81.054425 1.35905,19.94299 5.6988,41.97277 9.37309,47.58045 1.44667,2.2079 2.8444,5.86899 3.10607,8.13577 0.26167,2.26677 2.0098,8.85673 3.88473,14.64434 2.94186,9.08101 5.22997,12.15105 16.69831,22.40466 14.97973,13.39308 35.32263,33.37524 40.01621,39.3066 3.71749,4.69782 1.01861,5.25679 -3.88681,0.805 -6.57808,-5.96976 -8.67656,-7.34987 -20.95713,-13.78306 -6.78448,-3.55406 -15.4515,-6.96758 -19.26005,-7.58562 -6.2739,-1.01812 -6.82078,-0.79653 -5.81959,2.35797 1.23953,3.9054 -1.44229,27.74715 -4.32556,38.45481 -1.09876,4.08046 -2.97422,6.9934 -4.50261,6.9934 -1.44071,0 -2.63401,0.60493 -2.65178,1.34428 -0.0177,0.73936 -3.24404,4.01117 -7.16949,7.27069 l -7.13718,5.92643 0,-20.78905 z"
     id="path3537" />
  <path
     style="fill:#000000"
     d=""
     id="path3539" />
  <path
     style="fill:#000000"
     d="m 301.80797,281.03313 c -1.03059,-26.94311 -3.33097,-38.95127 -10.30341,-53.7845 -2.14238,-4.55772 -4.53806,-9.97751 -5.32373,-12.044 -2.52385,-6.63821 -23.21008,-31.29739 -30.46061,-36.31079 -3.86134,-2.66994 -7.05122,-5.37969 -7.08864,-6.02167 -0.0374,-0.64198 2.64261,-2.76654 5.9556,-4.72126 9.83323,-5.80175 15.99268,-15.38943 16.89768,-26.30265 1.0055,-12.12495 -1.74789,-20.40851 -9.06417,-27.26955 -18.82546,-17.654063 -48.50757,-13.80135 -61.77151,8.01789 l -3.5946,5.91312 -2.12127,-8.42434 c -1.1667,-4.63339 -3.34831,-10.79716 -4.84802,-13.69727 -3.28298,-6.34859 -1.95806,-8.453413 2.67939,-4.25658 1.85427,1.67809 4.48056,2.81579 5.8362,2.52821 1.35564,-0.28758 2.26316,0.48533 2.0167,1.71759 -0.59719,2.98595 0.6117,2.8566 12.56396,-1.34428 13.24263,-4.65441 29.82848,-4.63711 44.48917,0.0464 6.25158,1.99713 12.30763,3.27002 13.45788,2.82862 1.15025,-0.44139 2.96978,0.0759 4.04339,1.14949 6.05014,6.05014 4.35805,-21.108239 -2.20882,-35.452178 -5.14828,-11.245326 -14.60547,-22.059596 -25.74245,-29.436424 -4.52848,-2.999542 -7.2487,-5.453713 -6.04493,-5.453713 3.89392,0 13.42423,5.696365 23.67066,14.1482 24.69814,20.372409 37.88553,47.269425 40.23314,82.059595 1.40574,20.83217 4.83935,37.45489 9.70805,46.99832 1.93868,3.80014 3.13228,7.30194 2.65244,7.78178 -0.47985,0.47985 1.27865,6.67581 3.90777,13.7688 4.23218,11.41779 6.2351,14.16876 17.47001,23.99462 19.95008,17.44798 42.96194,41.37506 40.5619,42.17507 -1.19897,0.39966 -2.70921,-0.12977 -3.35609,-1.17643 -3.55023,-5.74437 -32.51461,-21.48651 -42.52143,-23.11039 -5.82191,-0.94477 -6.37277,-0.69608 -5.38086,2.42917 1.23953,3.9054 -1.44229,27.74715 -4.32556,38.45481 -1.09876,4.08046 -2.97422,6.9934 -4.50261,6.9934 -1.44071,0 -2.63401,0.60493 -2.65178,1.34428 -0.0177,0.73936 -3.1359,3.92039 -6.92918,7.06894 l -6.89687,5.72466 -1.0074,-26.33695 0,0 z"
     id="path3541" />
  <path
     style="fill:#000000"
     d=""
     id="path3543" />
  <path
     style="fill:#000000"
     d=""
     id="path3545" />
  <path
     style="fill:#000000"
     d="m 295.16525,269.78199 c 0,-11.8438 4.24708,-11.2207 5.02724,0.73757 0.43148,6.61373 -0.0394,8.37366 -2.24047,8.37366 -2.1553,0 -2.78677,-2.06457 -2.78677,-9.11123 z"
     id="path3547" />
  <path
     style="fill:#000000"
     d="m 294.82507,285.16653 c 0.99477,-8.52094 5.7173,-8.52094 5.7173,0 0,4.84501 -0.73422,6.2733 -3.22483,6.2733 -2.63011,0 -3.08978,-1.15692 -2.49247,-6.2733 z"
     id="path3549" />
  <path
     style="fill:#000000"
     d=""
     id="path3551" />
  <path
     style="fill:#000000"
     d=""
     id="path3553" />
  <path
     style="fill:#000000"
     d="m 292.24317,299.9536 c 0.59442,-2.21806 1.09178,-5.04105 1.10524,-6.2733 0.0135,-1.23226 1.63761,-2.24047 3.60922,-2.24047 2.90193,0 3.58474,1.19492 3.58474,6.27331 0,5.57117 -0.52492,6.2733 -4.68998,6.2733 -3.98899,0 -4.52844,-0.60277 -3.60922,-4.03284 z"
     id="path3555" />
  <path
     style="fill:#000000"
     d=""
     id="path3557" />
  <path
     style="fill:#000000"
     d=""
     id="path3559" />
  <path
     style="fill:#000000"
     d=""
     id="path3561" />
  <path
     style="fill:#000000"
     d=""
     id="path3563" />
  <path
     style="fill:#000000"
     d="m 189.5144,188.82648 c -5.5539,-5.92574 -6.26773,-7.95043 -4.46205,-12.65596 0.84393,-2.19925 2.30136,-1.92361 8.68036,1.64168 4.21638,2.35658 9.19361,5.97252 11.06051,8.03542 3.33211,3.68194 3.33099,3.79707 -0.0611,6.2774 -5.33405,3.90035 -9.27026,3.04716 -15.21775,-3.29854 z"
     id="path3565" />
  <path
     style="fill:#000000"
     d="m 190.5728,187.755 c -3.16425,-3.30276 -4.81954,-6.74058 -4.44421,-9.23002 0.58293,-3.86633 0.82546,-3.80992 9.55997,2.22382 9.84292,6.79942 11.40593,10.92898 4.44421,11.74179 -3.10442,0.36245 -6.09503,-1.11896 -9.55997,-4.73559 z"
     id="path3567" />
  <path
     style="fill:#000000"
     d="m 190.5728,187.755 c -3.16425,-3.30276 -4.81954,-6.74058 -4.44421,-9.23002 0.58293,-3.86633 0.82546,-3.80992 9.55997,2.22382 9.84292,6.79942 11.40593,10.92898 4.44421,11.74179 -3.10442,0.36245 -6.09503,-1.11896 -9.55997,-4.73559 z"
     id="path3569" />
  <path
     style="fill:#000000"
     d="m 190.5728,187.755 c -3.16425,-3.30276 -4.81954,-6.74058 -4.44421,-9.23002 0.58293,-3.86633 0.82546,-3.80992 9.55997,2.22382 9.84292,6.79942 11.40593,10.92898 4.44421,11.74179 -3.10442,0.36245 -6.09503,-1.11896 -9.55997,-4.73559 z"
     id="path3571" />
  <path
     style="fill:#000000"
     d=""
     id="path3573" />
  <path
     style="fill:#000000"
     d="m 213.61229,173.14322 c -0.60926,-0.9858 -0.30118,-1.79237 0.68462,-1.79237 0.98581,0 2.29086,0.80657 2.90012,1.79237 0.60926,0.98581 0.30118,1.79237 -0.68462,1.79237 -0.98581,0 -2.29086,-0.80656 -2.90012,-1.79237 z"
     id="path3575" />
  <path
     style="fill:#000000"
     d=""
     id="path3577" />
  <path
     style="fill:#000000"
     d=""
     id="path3579" />
  <path
     style="fill:#000000"
     d="m 194.36518,159.32894 c 2.22955,-0.42873 5.45582,-0.41245 7.16949,0.0362 1.71366,0.44861 -0.11052,0.79939 -4.05374,0.77949 -3.94322,-0.0199 -5.34531,-0.38694 -3.11575,-0.81566 z"
     id="path3581" />
  <path
     style="fill:#000000"
     d="m 209.76308,148.72295 c -6.02849,-2.92278 -8.6391,-10.65057 -5.97961,-17.70049 1.26296,-3.34791 1.50227,-3.26135 3.62224,1.31012 1.80983,3.90272 3.12302,4.68076 6.47872,3.83853 3.69914,-0.92842 4.19353,-0.43594 4.08281,4.067 -0.0693,2.81783 -0.67421,6.49509 -1.34428,8.17168 -1.11576,2.79179 -1.69312,2.81815 -6.85988,0.31316 l 0,0 z"
     id="path3583" />
  <path
     style="fill:#000000"
     d="m 226.1589,151.73184 c -2.34222,-0.94304 0.4286,-1.41922 7.99395,-1.37378 7.29244,0.0438 10.27824,0.5781 8.06568,1.44332 -4.55511,1.7813 -11.53786,1.75106 -16.05963,-0.0695 z"
     id="path3585" />
  <path
     style="fill:#000000"
     d=""
     id="path3587" />
  <path
     style="fill:#000000"
     d=""
     id="path3589" />
  <path
     style="fill:#000000"
     d="m 219.49168,135.42448 c -0.44042,-3.00082 -0.12868,-5.87141 0.69276,-6.37909 0.82144,-0.50768 1.49353,0.3344 1.49353,1.87129 0,2.28248 2.46239,2.79434 13.44279,2.79434 9.49214,0 13.47982,-0.65845 13.56878,-2.24047 0.0693,-1.23225 0.76423,-0.62733 1.54433,1.34428 2.72535,6.88803 0.52042,8.06568 -15.10144,8.06568 l -14.83997,0 -0.80078,-5.45603 z"
     id="path3591" />
  <path
     style="fill:#000000"
     d="m 246.91269,129.08072 c 0.086,-2.08801 0.51072,-2.51273 1.08289,-1.08289 0.51776,1.29387 0.45409,2.83979 -0.1415,3.43538 -0.59559,0.59559 -1.01922,-0.46303 -0.94139,-2.35249 z"
     id="path3593" />
  <path
     sodipodi:type="arc"
     style="fill:#000000"
     id="path3595"
     sodipodi:cx="218.66949"
     sodipodi:cy="159.52118"
     sodipodi:rx="69.902542"
     sodipodi:ry="89.618645"
     d="m 288.57204,159.52118 a 69.902542,89.618645 0 1 1 -139.80509,0 69.902542,89.618645 0 1 1 139.80509,0 z" />
  <path
     sodipodi:type="arc"
     style="fill:#000000"
     id="path3597"
     sodipodi:cx="164.8983"
     sodipodi:cy="188.19916"
     sodipodi:rx="66.317795"
     sodipodi:ry="127.25848"
     d="m 231.21609,188.19916 a 66.317795,127.25848 0 1 1 -132.635585,0 66.317795,127.25848 0 1 1 132.635585,0 z" />
  <path
     sodipodi:type="arc"
     style="fill:#000000"
     id="path3599"
     sodipodi:cx="268.85593"
     sodipodi:cy="264.375"
     sodipodi:rx="55.56356"
     sodipodi:ry="56.459747"
     d="m 324.41949,264.375 a 55.56356,56.459747 0 1 1 -111.12712,0 55.56356,56.459747 0 1 1 111.12712,0 z" />
  <path
     sodipodi:type="arc"
     style="fill:#000000"
     id="path3601"
     sodipodi:cx="253.62076"
     sodipodi:cy="200.74576"
     sodipodi:rx="24.197035"
     sodipodi:ry="43.016949"
     d="m 277.81779,200.74576 a 24.197035,43.016949 0 1 1 -48.39407,0 24.197035,43.016949 0 1 1 48.39407,0 z" />
  <path
     sodipodi:type="arc"
     style="fill:#000000"
     id="path3603"
     sodipodi:cx="272.44067"
     sodipodi:cy="207.91525"
     sodipodi:rx="30.470339"
     sodipodi:ry="19.716103"
     d="m 302.91101,207.91525 a 30.470339,19.716103 0 1 1 -60.94067,0 30.470339,19.716103 0 1 1 60.94067,0 z" />
  <path
     sodipodi:type="arc"
     style="fill:#000000"
     id="path3605"
     sodipodi:cx="254.51695"
     sodipodi:cy="283.19492"
     sodipodi:rx="62.733051"
     sodipodi:ry="43.016949"
     d="m 317.25,283.19492 a 62.733051,43.016949 0 1 1 -125.4661,0 62.733051,43.016949 0 1 1 125.4661,0 z" />
  <path
     sodipodi:type="arc"
     style="fill:#000000"
     id="path3607"
     sodipodi:cx="179.23729"
     sodipodi:cy="276.9216"
     sodipodi:rx="78.86441"
     sodipodi:ry="60.044491"
     d="m 258.1017,276.9216 a 78.86441,60.044491 0 1 1 -157.72882,0 78.86441,60.044491 0 1 1 157.72882,0 z" />
  <path
     sodipodi:type="arc"
     style="fill:#000000"
     id="path3609"
     sodipodi:cx="115.60805"
     sodipodi:cy="276.02542"
     sodipodi:rx="25.989408"
     sodipodi:ry="51.978813"
     d="m 141.59746,276.02542 a 25.989408,51.978813 0 1 1 -51.978821,0 25.989408,51.978813 0 1 1 51.978821,0 z" />
  <path
     sodipodi:type="arc"
     style="fill:#000000"
     id="path3611"
     sodipodi:cx="196.26483"
     sodipodi:cy="324.41949"
     sodipodi:rx="108.43856"
     sodipodi:ry="46.601696"
     d="m 304.70339,324.41949 a 108.43856,46.601696 0 1 1 -216.877119,0 108.43856,46.601696 0 1 1 216.877119,0 z" />
  <path
     style="fill:#000000"
     d=""
     id="path3613" />
  <path
     style="fill:#000000"
     d="m 81.215798,312.02889 c -0.872763,-2.27438 -0.135401,-2.779 3.41234,-2.33523 5.613817,0.70219 6.658421,3.9585 1.505711,4.69369 -2.231664,0.31842 -4.265018,-0.65668 -4.918051,-2.35846 z"
     id="path3615" />
  <path
     style="fill:#000000"
     d=""
     id="path3617" />
  <path
     style="fill:#000000"
     d=""
     id="path3619" />
  <path
     style="fill:#000000"
     d="m 173.2839,369.08159 c -25.77371,-2.66623 -53.47528,-11.28437 -67.73317,-21.07223 -15.669732,-10.75709 -20.186094,-22.73415 -13.010377,-34.50259 2.879105,-4.72184 3.162065,-6.7462 1.628466,-11.65042 -1.020866,-3.26457 -2.473134,-12.79141 -3.227266,-21.17076 l -1.371148,-15.23517 -0.264016,20.1642 c -0.145218,11.09031 -1.003371,20.16419 -1.907026,20.16419 -0.903653,0 -1.911863,-0.60492 -2.240466,-1.34428 -0.328601,-0.73935 -3.816655,-4.11181 -7.751231,-7.49435 -8.987902,-7.72689 -11.509413,-14.67658 -12.888428,-35.52259 -0.932016,-14.08892 -1.561854,-16.57945 -4.192827,-16.57945 -5.963434,0 -18.046328,5.30732 -30.660614,13.46747 -6.998764,4.52747 -13.058175,7.89863 -13.465357,7.49144 -1.550989,-1.55099 11.565413,-15.478 24.959133,-26.50163 24.389901,-20.07398 27.321155,-23.86924 31.543883,-40.84167 2.05504,-8.25982 4.483465,-15.92221 5.396503,-17.02754 3.090167,-3.74097 7.435587,-24.27529 9.239306,-43.66042 3.037102,-32.64067 7.952975,-46.86167 23.286755,-67.365614 12.81835,-17.140389 41.23114,-36.222887 56.64014,-38.040466 5.49848,-0.648575 5.99657,-0.499432 2.43299,0.728508 -13.49835,4.651274 -23.56054,11.05072 -34.13682,21.710662 -9.26466,9.337953 -12.4007,13.950416 -14.91084,21.930835 -1.74828,5.55823 -2.92135,12.784997 -2.60683,16.059481 l 0.57186,5.953609 5.98028,-9.351962 c 10.72976,-16.779198 26.38069,-27.296012 40.62142,-27.296012 7.47813,0 18.32901,4.424727 25.98941,10.597856 4.26704,3.438601 4.86591,3.475967 12.54661,0.782831 22.39872,-7.853823 49.18739,4.07185 69.31489,30.857322 3.60124,4.79249 3.99432,4.92247 5.2404,1.73277 1.90534,-4.8773 -2.17453,-26.716563 -6.61823,-35.42697 -4.2492,-8.329121 -18.12327,-22.848727 -27.01,-28.266712 -3.2867,-2.0038 -4.92752,-3.646288 -3.64632,-3.649973 4.01981,-0.01156 13.42486,5.574046 23.81146,14.141499 24.11073,19.887879 37.59721,46.799358 40.11384,80.044866 1.70383,22.50795 4.23864,36.23926 8.42003,45.61202 1.97905,4.43612 3.95626,10.0821 4.39377,12.54661 2.67378,15.06132 7.00729,22.55558 20.21024,34.95127 25.63234,24.06504 43.56031,42.90179 41.48914,43.59218 -1.14743,0.38247 -3.04333,-0.46048 -4.21312,-1.87323 -5.49667,-6.63839 -36.61572,-22.85073 -43.92032,-22.88152 -3.31908,-0.0143 -3.92858,0.69155 -3.03352,3.5116 2.09304,6.59458 -4.61255,44.86495 -7.86106,44.86495 -0.80698,0 -5.61364,4.14641 -10.68149,9.21425 -9.13323,9.13324 -9.19645,9.27365 -7.19048,15.96899 1.11308,3.7151 1.49411,8.86511 0.84672,11.44448 -1.54178,6.14294 -14.08633,18.19927 -24.32539,23.37867 -24.99623,12.64429 -70.6512,19.48017 -105.8109,15.843 l 0,0 z M 92.05914,257.04868 c -0.572172,-1.42983 -0.996887,-1.00513 -1.082892,1.08289 -0.07783,1.88945 0.345799,2.94808 0.94139,2.35249 0.595589,-0.5956 0.659267,-2.14152 0.141508,-3.43538 l -6e-6,0 z m 10.7795,-29.99802 c -0.45817,-1.88815 -1.37357,-1.04185 -2.7607,2.55231 -1.14139,2.95741 -2.778911,6.61344 -3.63894,8.1245 -0.86003,1.51108 -2.12725,5.54392 -2.816049,8.96186 -0.958129,4.75445 0.05784,3.50935 4.324392,-5.29968 3.067217,-6.3328 5.268297,-12.78534 4.891297,-14.33899 l 0,0 z"
     id="path3621" />
  <path
     style="fill:#000000"
     d="m 173.2839,369.08159 c -25.77371,-2.66623 -53.47528,-11.28437 -67.73317,-21.07223 -15.669732,-10.75709 -20.186094,-22.73415 -13.010377,-34.50259 2.873448,-4.71256 3.161224,-6.75584 1.640846,-11.65042 -1.014055,-3.26457 -2.469224,-12.38813 -3.233708,-20.27457 l -1.389973,-14.33898 -0.257573,19.26801 c -0.141665,10.5974 -0.772299,19.268 -1.40141,19.268 -3.100896,0 -17.9603,-15.98845 -19.979302,-21.49736 -1.266774,-3.45643 -2.79677,-13.74517 -3.399995,-22.86386 -1.038464,-15.69804 -1.312173,-16.57945 -5.148502,-16.57945 -4.192525,0 -27.632952,11.50576 -36.935826,18.12999 -2.911615,2.07326 -5.672061,3.39133 -6.134324,2.92906 -1.693965,-1.69395 11.298134,-15.35771 27.40529,-28.82207 21.176674,-17.70209 24.846747,-22.6937 29.19991,-39.71441 1.96543,-7.68476 4.311673,-14.86597 5.213875,-15.95824 3.005845,-3.63909 7.140935,-23.26745 9.103128,-43.21052 3.288983,-33.42812 8.077273,-47.29829 23.403231,-67.791774 12.81835,-17.140389 41.23114,-36.222887 56.64014,-38.040466 5.79737,-0.683832 6.14827,-0.5591 2.17282,0.772363 -29.21665,9.785293 -53.47946,37.948903 -51.39432,59.657123 l 0.57186,5.953609 5.98028,-9.351962 c 17.92175,-28.026037 42.90837,-34.790361 65.33247,-17.686664 5.7554,4.389849 6.07874,4.429857 13.89159,1.718839 22.23906,-7.716827 50.73582,4.928048 69.21741,30.713852 3.54558,4.94683 3.96455,5.10127 5.23568,1.93004 1.9713,-4.91797 -1.63153,-23.66573 -6.57096,-34.192757 -4.50997,-9.611734 -17.29857,-23.574315 -27.02169,-29.502225 -3.2867,-2.0038 -4.92752,-3.646288 -3.64632,-3.649973 4.01981,-0.01156 13.42486,5.574046 23.81146,14.141499 24.08643,19.867828 37.55025,46.7092 40.15107,80.044866 1.65831,21.25525 5.73821,41.07064 10.29552,50.0037 2.03672,3.99231 3.52273,7.47381 3.30225,7.73668 -0.85224,1.01601 2.22249,12.32778 4.74204,17.44579 1.45591,2.95742 15.2688,17.8128 30.69528,33.01196 17.32542,17.07011 27.11518,27.94584 25.60769,28.44835 -1.34225,0.44741 -2.95211,0.0107 -3.57745,-0.96917 -3.90433,-6.12148 -40.55194,-24.94817 -45.41084,-23.32853 -0.91286,0.30429 -1.98547,5.65019 -2.38361,11.87978 -0.39812,6.22959 -1.66248,16.09744 -2.80969,21.92857 -1.88046,9.55824 -3.20963,11.70396 -13.50054,21.79436 l -11.41475,11.19231 2.03404,6.53065 c 1.11871,3.59185 1.50115,8.65379 0.84985,11.24877 -1.56696,6.2433 -14.11233,18.23534 -24.6776,23.58917 -24.79549,12.56482 -70.20786,19.30821 -105.4658,15.66088 z M 92.05914,257.04868 c -0.572172,-1.42983 -0.996887,-1.00513 -1.082892,1.08289 -0.07783,1.88945 0.345799,2.94808 0.94139,2.35249 0.595589,-0.5956 0.659267,-2.14152 0.141508,-3.43538 l -6e-6,0 z m 10.77899,-30.00065 c -0.45901,-1.89128 -1.38142,-1.04852 -2.7964,2.55494 -1.161308,2.95741 -2.850696,6.99025 -3.754201,8.96186 -4.447089,9.70436 -3.097016,11.21327 1.723252,1.926 3.031759,-5.84135 5.204069,-11.89061 4.827349,-13.4428 z"
     id="path3623" />
  <path
     style="fill:#000000"
     d="m 172.38771,369.09231 c -38.27229,-4.8031 -68.887,-17.46956 -79.312499,-32.81457 -4.915765,-7.23538 -5.116977,-14.16087 -0.666866,-22.95275 2.531183,-5.00074 2.946761,-7.7613 1.675659,-11.13092 -0.929672,-2.46451 -2.337072,-10.53019 -3.127559,-17.92373 l -1.437246,-13.4428 -0.238412,17.47564 c -0.13113,9.6116 -0.753141,17.47563 -1.382252,17.47563 -0.62911,0 -4.863591,-3.42103 -9.409957,-7.60227 -9.87721,-9.084 -12.685363,-16.38201 -14.263021,-37.06765 -1.048523,-13.74783 -1.56641,-15.43087 -4.89462,-15.9066 -3.600422,-0.51464 -26.890067,10.76241 -37.157651,17.99207 -2.767722,1.94883 -5.410437,3.1651 -5.8727,2.70283 -1.276815,-1.27681 9.70621,-13.91643 18.881686,-21.72965 31.342817,-26.68946 32.815956,-28.5574 37.953067,-48.12425 1.821857,-6.93931 4.107635,-13.57505 5.079504,-14.74608 2.817716,-3.39514 7.093818,-24.20561 9.102175,-44.29749 3.209948,-32.11272 8.481591,-47.170423 23.459372,-67.008347 12.60598,-16.696509 41.35182,-35.846057 56.48977,-37.631663 5.45386,-0.643313 5.96765,-0.493192 2.43299,0.710878 -18.61708,6.341839 -38.90728,22.825075 -46.55869,37.823089 -3.58375,7.024718 -7.25298,26.969883 -4.96154,26.969883 0.52805,0 3.53366,-4.010553 6.67913,-8.912339 10.49622,-16.356943 26.27494,-26.85639 40.36017,-26.85639 7.47002,0 18.44816,4.386418 25.79241,10.305602 3.92615,3.164329 4.96037,3.249106 12.38338,1.015109 4.45469,-1.340666 11.57055,-2.437575 15.81303,-2.437575 17.01259,0 39.55333,13.133221 50.9362,29.677663 4.12361,5.99345 6.24201,7.74301 7.65932,6.32572 2.85806,-2.85807 -1.33195,-25.144943 -6.73008,-35.797642 -4.88884,-9.647644 -17.47264,-23.374202 -26.44087,-28.841999 -3.25936,-1.98718 -4.87783,-3.616069 -3.59663,-3.619754 7.09646,-0.02041 29.47959,16.985504 40.19963,30.54226 14.79147,18.705543 21.52315,38.029425 24.59365,70.598115 1.29427,13.72833 3.61708,25.9229 6.48676,34.05508 2.45876,6.96774 5.54209,16.87204 6.85181,22.00958 3.39621,13.32192 5.70634,16.29233 35.83713,46.07995 25.73769,25.44453 32.43681,35.40137 14.71951,21.87745 -8.71117,-6.64938 -27.62267,-16.41297 -35.23863,-18.19291 l -4.59353,-1.07355 -2.2129,19.03697 c -1.21707,10.47034 -2.90296,20.85207 -3.74641,23.07051 -0.84346,2.21843 -6.45584,8.82448 -12.47198,14.6801 -10.92867,10.63709 -10.93663,10.65245 -8.89349,17.17726 1.12472,3.59185 1.51207,8.65379 0.86077,11.24877 -1.56696,6.2433 -14.11233,18.23534 -24.6776,23.58917 -24.6818,12.50722 -73.85012,19.75177 -106.36199,15.6716 l 0,0 z M 102.77379,228.02772 c -0.41377,-1.10523 -2.46276,1.88857 -4.553304,6.65288 -5.235451,11.93145 -4.777134,14.31968 0.752313,3.92022 2.504321,-4.70998 4.214771,-9.46787 3.800991,-10.5731 z"
     id="path3625" />
  <path
     style="fill:#000000"
     d="m 172.38771,369.09231 c -38.27229,-4.8031 -68.887,-17.46956 -79.312499,-32.81457 -4.75864,-7.00413 -5.133958,-14.20862 -1.142315,-21.92762 2.468275,-4.77312 2.599819,-7.44387 0.900492,-18.28281 -1.094516,-6.98124 -2.285412,-14.70958 -2.646435,-17.17409 -0.361022,-2.46451 -0.766243,2.57654 -0.900492,11.20233 -0.134249,8.6258 -0.758815,15.68326 -1.387926,15.68326 -0.62911,0 -4.863591,-3.42291 -9.409957,-7.60647 -9.582515,-8.81781 -12.331587,-15.36234 -13.745036,-32.72192 -1.452833,-17.84326 -2.226586,-20.6128 -5.757564,-20.60848 -3.410828,0.004 -28.827104,12.65524 -36.812692,18.32369 -2.767722,1.96462 -5.410437,3.19383 -5.8727,2.73156 -1.294914,-1.2949 9.78909,-13.99745 18.881686,-21.63887 4.485026,-3.76922 13.606551,-12.20464 20.270057,-18.74539 10.711966,-10.51459 12.557026,-13.35432 15.927173,-24.51339 2.096438,-6.94163 5.283569,-16.32697 7.082515,-20.85631 4.478084,-11.27482 6.421303,-20.79226 8.748369,-42.84747 3.458841,-32.7818 8.61119,-47.496883 23.566004,-67.304387 12.52152,-16.584638 41.07533,-35.666622 56.48977,-37.75108 6.53949,-0.884319 6.36362,-0.699794 -3.24744,3.407259 -26.98684,11.532169 -46.29838,35.024062 -46.29838,56.320551 l 0,6.612704 8.09185,-11.120577 c 18.47829,-25.394597 39.10104,-31.619481 60.5601,-18.279796 8.89526,5.529597 9.7067,5.700964 17.96665,3.79434 4.75786,-1.098244 11.78513,-1.996807 15.61616,-1.996807 16.13693,0 38.5041,13.135555 50.27344,29.524063 7.67421,10.68614 10.02102,7.60632 7.07871,-9.289677 -3.3769,-19.391559 -12.22726,-33.285678 -29.32908,-46.043482 -4.75807,-3.549489 -7.74266,-6.453616 -6.63239,-6.453616 6.81627,0 29.42246,17.313006 39.88883,30.54896 13.29586,16.814176 21.58764,38.448165 23.67042,61.758245 1.94223,21.73698 4.83162,37.28133 8.99556,48.39407 2.21628,5.91483 5.43662,15.5042 7.1563,21.30972 2.93074,9.89395 4.93829,12.35695 32.0323,39.2996 15.89808,15.80926 27.94569,29.06408 26.77249,29.45514 -1.17321,0.39107 -5.18341,-1.69767 -8.91159,-4.64162 -7.47777,-5.90487 -29.2638,-17.30827 -36.46525,-19.08691 l -4.59353,-1.13453 -2.2129,19.03697 c -1.21707,10.47034 -2.90296,20.85207 -3.74641,23.07051 -0.84346,2.21843 -6.45584,8.82448 -12.47198,14.6801 -10.92867,10.63709 -10.93663,10.65245 -8.89349,17.17726 1.12472,3.59185 1.51207,8.65379 0.86077,11.24877 -1.56696,6.2433 -14.11233,18.23534 -24.6776,23.58917 -24.6818,12.50722 -73.85012,19.75177 -106.36199,15.6716 l 0,0 z M 102.65365,227.38163 c -0.92708,-0.92709 -8.325882,14.64719 -8.150704,17.15702 0.0459,0.65762 2.117867,-2.71441 4.604371,-7.49339 2.486503,-4.77899 4.082353,-9.12763 3.546333,-9.66363 l 0,0 z"
     id="path3627" />
  <path
     style="fill:#000000"
     d="m 171.49152,369.10656 c -31.54224,-4.99431 -52.0343,-11.55057 -65.94079,-21.0972 -15.33076,-10.52438 -19.645062,-21.19221 -13.652647,-33.75843 2.58296,-5.41653 2.598901,-7.43381 0.166906,-21.1212 l -2.688798,-15.1327 -0.166906,13.89089 c -0.0918,7.63999 -0.681636,13.89089 -1.310746,13.89089 -0.62911,0 -4.863591,-3.42291 -9.409958,-7.60647 -9.582514,-8.81781 -12.331586,-15.36234 -13.745035,-32.72192 -1.653043,-20.30217 -1.979029,-21.15053 -7.593791,-19.76259 -5.823502,1.43956 -27.934465,12.49176 -34.976465,17.48305 -2.767722,1.96174 -5.438794,3.16023 -5.935716,2.66331 -1.169753,-1.16976 8.963983,-12.79726 18.137425,-20.81097 3.943221,-3.44473 13.251608,-12.35632 20.685306,-19.80355 11.999684,-12.02154 13.886775,-14.8473 16.82282,-25.19086 1.818853,-6.40773 5.141898,-16.48983 7.384544,-22.40466 2.451209,-6.4649 5.560387,-22.21226 7.795341,-39.48187 4.919703,-38.01474 8.092628,-47.081245 23.89344,-68.274541 12.22956,-16.403265 40.97561,-35.594849 56.30971,-37.593783 6.46905,-0.843298 6.23417,-0.608613 -3.65026,3.647298 -26.65771,11.477928 -45.89556,35.457853 -45.89556,57.208674 0,5.235683 0.31945,5.011849 8.09185,-5.669698 18.45535,-25.363069 39.10534,-31.616811 60.49464,-18.320489 9.12526,5.672568 9.39055,5.720749 19.58592,3.557142 13.14561,-2.789687 23.43607,-1.610107 35.95563,4.12154 9.58143,4.386522 24.39208,17.146138 30.66947,26.422257 7.05455,10.42452 7.60219,-7.830303 0.79051,-26.350808 -3.68641,-10.023096 -15.94991,-24.92207 -27.25344,-33.110307 -3.84509,-2.785371 -5.86185,-5.030502 -4.48169,-4.989182 7.25633,0.217246 28.94277,16.866604 39.65154,30.441719 14.45783,18.327705 21.44291,37.878458 24.6379,68.959848 2.20131,21.41451 3.8341,29.27871 8.93141,43.01695 1.82882,4.92902 4.31222,12.78467 5.51867,17.45698 2.56124,9.91922 10.55168,19.57843 41.01987,49.58682 11.76259,11.58507 19.78785,20.78179 18.51377,21.21621 -1.23693,0.42176 -4.68438,-1.28245 -7.66103,-3.78713 -5.81729,-4.89493 -36.52771,-20.84364 -40.13598,-20.84364 -1.43988,0 -2.93304,6.44668 -4.38376,18.92686 -1.21005,10.40978 -2.9101,20.79438 -3.77791,23.07689 -0.86782,2.28252 -6.14229,8.46689 -11.72105,13.74304 l -10.14321,9.59303 1.1837,9.47402 c 0.97089,7.77069 0.53077,10.51716 -2.44794,15.27607 -10.07466,16.09561 -39.21858,28.83367 -76.39269,33.38924 -15.38666,1.88559 -43.31787,2.30251 -52.875,0.78927 l 0,0 z M 99.79661,235.87627 c 2.01168,-3.94322 2.95699,-7.16949 2.10069,-7.16949 -0.85631,0 -2.824236,3.22627 -4.373177,7.16949 -1.54894,3.94322 -2.49425,7.16949 -2.100686,7.16949 0.393563,0 2.361492,-3.22627 4.373173,-7.16949 z"
     id="path3629" />
  <path
     style="fill:#000000"
     d="m 170.59534,369.12677 c -1.97161,-0.41891 -10.03729,-1.97585 -17.92373,-3.4599 -36.16526,-6.8055 -63.629238,-24.23287 -63.629238,-40.37621 0,-2.77818 1.304412,-7.78663 2.898696,-11.12987 2.636324,-5.52843 2.652676,-7.35905 0.180653,-20.22501 l -2.718042,-14.14637 -0.180653,12.9947 c -0.09935,7.14709 -0.69538,12.9947 -1.324491,12.9947 -3.146738,0 -17.956468,-16.01071 -19.884814,-21.49736 -1.214804,-3.45643 -2.930513,-13.37725 -3.812687,-22.04626 -0.882174,-8.669 -2.088322,-16.24621 -2.68033,-16.83821 -1.652194,-1.65219 -14.890755,3.91359 -30.593538,12.86221 -7.800321,4.44519 -14.471449,7.79313 -14.82473,7.43985 -1.326734,-1.32673 11.610651,-15.12454 28.588809,-30.49014 18.966636,-17.16523 24.721377,-25.22026 28.975197,-40.5572 1.503814,-5.42193 4.338514,-14.37762 6.299334,-19.90154 1.96082,-5.52392 5.201692,-22.49985 7.201939,-37.72429 4.855137,-36.95382 8.100502,-46.115835 23.788735,-67.158131 12.23795,-16.41451 41.00393,-35.613225 56.30971,-37.581685 6.16593,-0.792994 5.65646,-0.357623 -4.70924,4.024283 -16.8969,7.142849 -37.5874,27.942161 -41.96988,42.190599 -1.72745,5.616341 -2.8775,11.929962 -2.55567,14.030266 0.489,3.1912 2.05787,1.966357 9.54702,-7.453493 12.5418,-15.775077 23.39855,-22.16542 37.65752,-22.16542 9.41496,0 12.48086,0.887576 20.68726,5.988956 9.55054,5.936941 9.72397,5.969904 19.96958,3.795638 21.85485,-4.637914 40.08562,2.069289 58.87881,21.661842 7.60952,7.933175 12.38042,11.700585 12.94711,10.223835 1.42962,-3.72554 -2.12794,-22.909511 -5.77913,-31.163629 -3.81445,-8.623226 -15.62132,-22.128533 -25.88538,-29.609068 -3.84467,-2.802034 -5.86109,-5.0608 -4.48093,-5.01948 7.25633,0.217246 28.94277,16.866604 39.65154,30.441719 14.50736,18.390492 21.45694,37.896818 24.69063,69.302628 2.0655,20.06022 4.07647,29.43776 9.92004,46.25891 1.7123,4.92903 4.35227,12.59142 5.86659,17.02755 2.16134,6.33157 8.92285,14.40083 31.44916,37.53186 28.13679,28.8921 33.44546,37.02544 15.97382,24.47332 -11.69584,-8.40262 -36.14458,-19.91376 -38.00606,-17.89429 -0.80845,0.87704 -2.45021,9.60944 -3.6484,19.40534 -1.19816,9.79589 -2.84948,19.57556 -3.66958,21.73261 -0.8201,2.15703 -6.05555,8.23875 -11.63431,13.5149 l -10.14321,9.59303 1.1837,9.47402 c 0.97089,7.77069 0.53077,10.51716 -2.44794,15.27607 -13.25085,21.17002 -58.73317,35.76868 -109.55158,35.16322 -9.36515,-0.11167 -18.64068,-0.5456 -20.61229,-0.9645 l 0,0 z M 101.47097,230.49915 c 0.008,-2.38982 -0.16001,-2.38982 -1.512054,0 -0.836583,1.47871 -2.055552,4.70498 -2.708824,7.16949 l -1.187766,4.48094 2.699814,-4.48094 c 1.4849,-2.46451 2.70387,-5.69078 2.70883,-7.16949 l 0,0 z"
     id="path3631" />
  <path
     style="fill:#000000"
     d="m 159.8411,367.46727 c -41.89381,-7.34884 -70.798728,-24.79959 -70.798728,-42.74325 0,-2.49353 1.215632,-7.57463 2.701406,-11.29134 2.360354,-5.90453 2.386764,-8.34169 0.209193,-19.30429 l -2.492212,-12.54661 -0.209194,12.09852 c -0.115052,6.65418 -0.723919,12.09851 -1.35303,12.09851 -0.62911,0 -4.863591,-3.42103 -9.409957,-7.60227 -9.588294,-8.8183 -12.025722,-14.82176 -14.311074,-35.24868 -0.914652,-8.1753 -2.479961,-15.68117 -3.478467,-16.67966 -2.068667,-2.06867 -14.986729,3.36166 -32.717489,13.75337 -6.094961,3.57217 -11.405678,6.17091 -11.801594,5.77499 -1.355527,-1.35551 10.873395,-14.66268 25.006858,-27.21173 19.146201,-16.99985 27.401994,-27.65038 30.971438,-39.95528 1.632339,-5.62714 4.052351,-13.05415 5.377807,-16.50446 4.035924,-10.50599 6.021751,-20.05662 9.747851,-46.88125 4.939729,-35.5617 8.228403,-44.641203 23.672542,-65.356101 12.22632,-16.398907 40.96459,-35.587697 56.30971,-37.59847 l 6.91392,-0.905978 -9.00915,4.124075 c -13.88941,6.35808 -21.12093,11.392324 -29.9995,20.884235 -9.62154,10.286202 -15.10225,20.35319 -16.77463,30.811677 -1.52764,9.553353 0.12889,8.971054 10.35124,-3.638657 10.43623,-12.873526 22.22061,-20.125252 34.30942,-21.112903 8.07627,-0.659826 10.95533,0.101807 21.4217,5.666954 11.67172,6.20605 12.41396,6.360063 21.38221,4.43672 21.13799,-4.533286 40.05182,2.318949 58.2208,21.092626 6.07072,6.272769 11.62548,11.405032 12.34391,11.405032 2.45749,0 -0.59193,-22.393235 -4.14932,-30.470337 -4.13802,-9.395435 -16.10345,-23.453431 -26.16757,-30.743833 -3.87493,-2.806994 -5.91612,-5.069817 -4.53596,-5.028497 7.25725,0.217274 29.31053,17.129879 39.42498,30.234914 15.13928,19.615569 20.5457,34.691923 25.02976,69.797873 2.93056,22.94349 7.62667,41.5297 16.56627,65.56565 1.07521,2.8909 14.81762,18.58014 30.53872,34.865 15.72108,16.28485 27.78176,29.87617 26.80149,30.20292 -0.98025,0.32675 -6.13776,-2.36715 -11.46113,-5.98646 -10.35783,-7.04219 -28.94524,-16.24517 -34.68179,-17.17161 -3.1098,-0.50222 -3.72367,1.13321 -5.57648,14.85635 -3.74393,27.73014 -3.63776,27.46227 -15.33653,38.69531 l -10.84102,10.40942 1.17667,9.43313 c 1.35851,10.89076 -2.12693,18.36394 -12.10957,25.96421 -26.06358,19.84345 -85.84742,29.77688 -131.2635,21.81018 z M 101.46196,231.39534 c 0,-0.98581 -1.15269,0.22405 -2.561537,2.68856 -1.408843,2.46451 -2.561532,5.2875 -2.561532,6.2733 0,0.98581 1.152689,-0.22404 2.561532,-2.68856 1.408847,-2.46451 2.561537,-5.2875 2.561537,-6.2733 z"
     id="path3633" />
  <path
     style="fill:#000000"
     d="m 169.69915,369.08433 c -41.23347,-6.73326 -67.94278,-18.27849 -77.124642,-33.33747 -4.220115,-6.92132 -4.46729,-13.50607 -0.833449,-22.20306 2.297952,-5.49978 2.364491,-8.21928 0.448093,-18.31427 l -2.250593,-11.85538 -0.53362,11.20233 c -0.293492,6.16129 -1.10006,11.1703 -1.792373,11.13116 -0.692315,-0.0391 -4.967493,-3.48717 -9.500399,-7.66231 -9.363618,-8.62455 -11.498074,-13.92849 -14.064114,-34.948 -1.000418,-8.19486 -2.275403,-15.6383 -2.833302,-16.54099 -1.39345,-2.25466 -15.932922,3.50335 -31.47995,12.46689 -7.084808,4.08469 -13.194945,7.11324 -13.578081,6.73011 -1.315175,-1.31518 10.911657,-14.65289 24.924027,-27.18851 19.222742,-17.19688 26.897616,-27.74686 32.597754,-44.80932 7.939408,-23.76535 9.650016,-31.13967 13.512644,-58.25212 5.141466,-36.088834 8.35646,-44.968092 23.765305,-65.635651 12.13521,-16.276712 40.6438,-35.378851 56.30971,-37.730247 6.01336,-0.902583 5.02612,-0.07951 -7.57929,6.318947 -22.58096,11.462009 -37.47204,29.239756 -41.12818,49.100977 -0.68052,3.696769 -0.54261,6.665544 0.30645,6.59728 0.84907,-0.06827 5.37096,-4.871329 10.04864,-10.673473 10.47513,-12.993217 21.98447,-20.05662 34.32299,-21.064375 7.8699,-0.642777 10.85168,0.156905 21.2999,5.712334 11.5629,6.148117 12.54073,6.361094 20.26978,4.414896 20.23655,-5.095621 40.93742,2.250903 59.42542,21.089466 6.15306,6.269729 11.70941,11.399506 12.34746,11.399506 2.59654,0 -1.06737,-21.942672 -5.14513,-30.813365 -5.27388,-11.472761 -11.73208,-19.36151 -23.40265,-28.586568 -9.15715,-7.238309 -8.68869,-8.980463 1.06911,-3.97587 12.39666,6.358014 28.74712,21.773839 38.20206,36.018321 9.65993,14.553266 15.05054,32.013562 18.68363,60.516382 3.39403,26.62752 13.26662,61.51591 20.28795,71.69492 2.03999,2.95741 15.36449,17.43166 29.61002,32.16502 14.24551,14.73334 25.08351,27.06039 24.0844,27.39343 -0.9991,0.33302 -6.17203,-2.35573 -11.4954,-5.97504 -12.67293,-8.6162 -31.13457,-17.28494 -35.16334,-16.5111 -2.56469,0.49263 -3.58923,3.61794 -5.20353,15.87318 -3.28707,24.95419 -3.69378,25.94275 -15.23334,37.02693 l -10.69971,10.27745 1.15215,9.22149 c 1.40164,11.21835 -1.48267,17.73992 -11.243,25.42093 -14.10538,11.1004 -34.84029,18.61659 -63.23509,22.92207 -15.63982,2.37145 -48.40407,3.1376 -59.14831,1.3831 z M 101.58898,231.65022 c 0,-2.27729 -0.82789,-1.26046 -3.440837,4.22605 -2.012199,4.22511 -1.974894,4.2823 0.653402,1.00171 1.533095,-1.91358 2.787435,-4.26607 2.787435,-5.22776 z"
     id="path3635" />
  <path
     style="fill:#000000"
     d="m 152.30155,365.89746 c -33.42439,-6.94323 -58.965966,-21.74866 -62.6173,-36.29674 -0.661262,-2.63468 -0.140271,-8.46749 1.15776,-12.96183 2.583151,-8.94398 2.625256,-17.77374 0.124444,-26.09525 -1.414713,-4.70747 -1.635144,-4.09363 -1.770017,4.92903 -0.08473,5.66838 -0.758985,10.28836 -1.498339,10.26664 -3.473918,-0.10209 -18.062853,-15.8918 -19.836298,-21.46897 -1.508537,-4.74407 -5.705021,-32.23939 -5.705021,-37.37924 0,-2.66803 -14.870203,2.68437 -28.785091,10.36094 -9.066871,5.00201 -16.813159,9.09457 -17.213974,9.09457 -2.352784,0 4.498654,-8.07102 17.497658,-20.61229 21.460963,-20.70526 26.579734,-26.12507 31.317155,-33.1589 7.832569,-11.62931 16.761343,-42.1668 21.486746,-73.48728 6.080069,-40.299354 8.922064,-48.329829 24.497177,-69.220401 12.16595,-16.317939 40.75463,-35.451136 56.30971,-37.685721 6.16003,-0.884927 5.48162,-0.289994 -6.22172,5.456113 -22.58336,11.087985 -39.12347,30.704725 -42.46791,50.367378 l -1.21946,7.169492 12.28015,-12.911629 c 20.47959,-21.5327 34.24364,-25.012693 55.37204,-13.999823 11.28663,5.882985 12.45058,6.13043 19.95192,4.241566 11.3394,-2.855291 26.94202,-0.971497 37.88587,4.57418 5.11192,2.590399 15.06574,10.141345 22.11961,16.77988 l 12.82521,12.070065 -0.97919,-10.95752 c -1.70031,-19.02702 -11.3212,-35.537325 -28.72457,-49.293882 -9.20704,-7.277757 -8.76448,-9.035053 1.01255,-4.020591 12.39666,6.358014 28.74712,21.773839 38.20206,36.018321 9.59371,14.453528 14.98428,31.907182 18.87602,61.117002 3.26909,24.53654 11.24723,54.2631 18.14143,67.59501 1.50658,2.91341 15.00379,18.17328 29.9938,33.9108 14.99001,15.73752 26.45862,28.87898 25.48579,29.20326 -0.97281,0.32427 -5.61456,-2.00592 -10.31498,-5.17819 -11.24051,-7.58613 -31.38718,-17.68045 -35.30127,-17.68742 -3.44215,-0.005 -3.92483,1.55951 -6.87314,22.29355 -2.71222,19.07379 -3.42921,20.57626 -15.07436,31.58977 l -10.07385,9.52743 1.15776,9.26647 c 1.40779,11.26738 -1.46352,17.77427 -11.23737,25.46591 -28.18866,22.18341 -89.82536,31.49558 -139.781,21.1183 l 0,0 z M 101.53409,231.39534 c 0,-0.98581 -0.78187,-0.58252 -1.73748,0.89619 -0.955615,1.4787 -1.73748,3.49512 -1.73748,4.48093 0,0.9858 0.781865,0.58252 1.73748,-0.89619 0.95561,-1.47871 1.73748,-3.49513 1.73748,-4.48093 z"
     id="path3637" />
  <path
     style="fill:#000000"
     d="m 152.30155,365.89746 c -33.42439,-6.94323 -58.965966,-21.74866 -62.6173,-36.29674 -0.661262,-2.63468 -0.269632,-8.27743 0.870288,-12.53946 2.386885,-8.92429 2.51777,-21.31052 0.280207,-26.51762 -1.131319,-2.63272 -1.573875,-1.08567 -1.666396,5.82522 -0.06929,5.17547 -0.730903,9.39217 -1.470256,9.37045 -3.488471,-0.10252 -18.060546,-15.89286 -19.812598,-21.46897 -1.674553,-5.32946 -5.728716,-30.79019 -5.728716,-35.97715 0,-3.66342 -8.119693,-1.20943 -25.573879,7.72912 -10.086591,5.16549 -19.022505,9.69494 -19.857585,10.06543 -4.50475,1.9986 4.527192,-8.41795 23.86446,-27.52291 11.973506,-11.82966 23.404599,-24.13201 25.402429,-27.33852 6.788829,-10.89611 16.030395,-43.73848 20.551251,-73.03436 6.11368,-39.617646 8.969498,-47.610174 24.412995,-68.324211 12.14041,-16.283686 40.66274,-35.391215 56.30971,-37.72271 6.16282,-0.918298 5.45355,-0.289294 -6.52887,5.790005 -22.55716,11.444406 -39.00575,30.966972 -42.1865,50.070475 l -1.19372,7.169492 12.28015,-12.911629 c 20.34925,-21.395659 33.71386,-24.837472 55.19674,-14.214924 10.94293,5.410908 12.96134,5.855976 19.59283,4.320298 11.56722,-2.678658 27.72249,-0.710425 38.34305,4.671417 5.15438,2.611921 15.14677,10.180477 22.20533,16.819012 l 12.83373,12.070065 -1.16985,-11.369258 c -2.00338,-19.470296 -11.14703,-35.125153 -28.55094,-48.882144 -9.20704,-7.277757 -8.76448,-9.035053 1.01255,-4.020591 12.44183,6.381186 28.75219,21.781469 38.29487,36.158126 8.09975,12.202808 15.88521,34.644347 17.52595,50.518527 3.38165,32.7175 13.48727,69.75797 22.33748,81.8743 2.75119,3.76649 16.08859,18.51826 29.6387,32.78171 13.55012,14.26347 23.84834,26.1963 22.88494,26.51744 -0.96338,0.32112 -5.27773,-1.79588 -9.58743,-4.70446 -10.94217,-7.38479 -32.29177,-18.15313 -36.01166,-18.16363 -3.44243,-0.009 -3.92442,1.55343 -6.87314,22.29032 -2.71222,19.07379 -3.42921,20.57626 -15.07436,31.58977 l -10.07385,9.52743 1.15776,9.26647 c 1.40779,11.26738 -1.46352,17.77427 -11.23737,25.46591 -28.18866,22.18341 -89.82536,31.49558 -139.781,21.1183 z M 101.53409,231.39534 c 0,-0.98581 -0.78187,-0.58252 -1.73748,0.89619 -0.955615,1.4787 -1.73748,3.49512 -1.73748,4.48093 0,0.9858 0.781865,0.58252 1.73748,-0.89619 0.95561,-1.47871 1.73748,-3.49513 1.73748,-4.48093 z"
     id="path3639" />
  <path
     style="fill:#000000"
     d="m 159.8411,367.61398 c -20.03003,-3.67573 -27.74536,-6.08651 -43.22035,-13.50487 -22.572442,-10.82072 -30.186497,-21.64256 -26.066212,-37.04785 2.512389,-9.39354 2.649765,-21.95481 0.280207,-25.62143 -1.256645,-1.94453 -1.745076,-0.33243 -1.764926,5.82521 -0.01506,4.68258 -0.632373,8.49599 -1.371726,8.47427 -3.488471,-0.10252 -18.060546,-15.89286 -19.812598,-21.46897 -1.674553,-5.32946 -5.728716,-30.79019 -5.728716,-35.97715 0,-3.67439 -8.015271,-1.18537 -26.391183,8.19537 -10.621007,5.42193 -19.541707,9.85805 -19.823779,9.85805 -2.214657,0 5.692231,-9.0437 21.155392,-24.19703 27.957436,-27.39725 31.138078,-31.98389 38.274782,-55.19403 7.470336,-24.29518 7.228769,-23.20593 11.808228,-53.24453 5.272377,-34.583758 8.788379,-44.106874 23.458371,-63.53713 12.58603,-16.670082 40.90138,-35.685562 56.62757,-38.028861 6.19955,-0.923771 5.54562,-0.334134 -6.32889,5.706671 -22.45594,11.423795 -38.75043,30.782504 -42.21513,50.153809 l -1.28233,7.169492 12.23878,-12.921406 c 19.42071,-20.503906 33.59987,-24.653824 52.56717,-15.385211 8.907,4.352517 11.84662,4.826354 30.47034,4.911515 18.95592,0.08668 21.36819,0.492631 30.01881,5.051734 5.17359,2.726613 15.05405,10.285062 21.95656,16.796555 l 12.55005,11.839072 0,-6.330717 c 0,-9.12213 -6.06237,-27.263187 -11.95607,-35.777326 -2.78931,-4.029489 -9.7511,-11.222808 -15.47067,-15.985154 -5.71955,-4.762344 -9.51861,-8.658808 -8.44236,-8.658808 6.09616,0 27.30886,15.395816 36.76529,26.68365 16.18692,19.321767 24.01886,39.843775 28.5826,74.894905 3.20512,24.61649 12.97853,58.78692 19.59233,68.50002 2.42311,3.55859 15.82035,18.54983 29.77164,33.3139 24.74172,26.18307 29.05076,32.85851 15.00971,23.25254 -9.27265,-6.34375 -33.95161,-18.72976 -37.31878,-18.72976 -3.00671,0 -3.57054,1.9448 -6.46484,22.29907 -2.71222,19.07379 -3.42921,20.57626 -15.07436,31.58977 l -10.07385,9.52743 1.15776,9.26647 c 1.80786,14.46958 -5.62848,24.62033 -25.18221,34.37415 -28.39534,14.16423 -82.37346,20.51885 -118.29661,13.92658 z"
     id="path3641" />
  <path
     style="fill:#000000"
     id="path3643"
     d="m 82.860173,316.48849 c -0.182065,-0.71427 -0.372597,-1.42643 -0.546194,-2.1428 -0.293926,-1.21292 -0.746369,-3.20422 -0.641055,-3.26748 17.543852,-10.53789 19.905626,-20.56996 25.738876,-10.15412 4.94967,9.32607 -4.64507,5.91002 -23.130349,13.89365 -0.187788,0.0811 -2.348817,-5.44009 -2.581194,-6.00696 -6.226886,-16.03462 -2.029909,-9.55795 21.727813,-21.36696 2.72654,3.96634 5.71929,7.83941 7.90924,12.13843 4.76176,9.74145 -3.34562,5.71989 -23.437963,14.204 -0.39516,0.16686 -3.10419,-5.21069 -3.352012,-5.71499 -1.611487,-3.73411 -3.568901,-7.24331 -5.784063,-10.6412 -5.402883,-10.92455 10.995001,-11.23925 23.254758,-16.95256 0.0569,-0.0265 3.21445,1.83071 4.20653,2.41008 5.13349,3.72675 10.04204,7.70053 14.45992,12.25481 10.58799,9.53487 -11.62879,25.42012 -22.325635,18.71291 -3.572281,-2.11063 -6.189417,-5.28491 -8.605619,-8.58544 -6.975404,-12.2297 -7.914988,-2.78958 19.825034,-17.15933 0.86126,5.16567 1.40195,10.38256 2.18808,15.55974 0.459,4.18505 1.54007,8.12306 3.2305,11.94969 5.52621,8.94376 -18.944172,20.80599 -24.32639,11.98086 0,0 23.08041,-13.3995 23.08041,-13.3995 l 0,0 c 5.36025,8.7905 -22.253435,20.20347 -22.04769,14.4465 -1.527029,-4.10924 -2.960722,-8.17472 -3.292548,-12.61434 -0.858939,-5.28092 -1.140717,-10.67582 -2.663525,-15.83417 22.929653,-13.9846 19.662963,-21.3545 26.909353,-8.48504 2.1373,2.92157 4.40988,5.84369 7.86166,7.26082 9.58816,0.0324 0.64944,-0.15761 -21.254143,13.50625 -0.151693,0.0946 0.404987,0.11407 0.536318,-0.007 0.538315,-0.49727 -0.23795,-1.62242 -0.397836,-1.87004 -0.383001,-0.59317 -0.866358,-1.11517 -1.299537,-1.67275 -4.229514,-4.37109 -8.913291,-8.26818 -14.059973,-11.52852 -0.720206,-0.34404 -1.411587,-0.75641 -2.160618,-1.0321 -0.493631,-0.18169 -1.976435,-0.0332 -1.542903,-0.33106 7.017318,-4.82163 14.502648,-8.92537 21.680072,-13.50527 0.12892,-0.0823 -0.33348,-0.1267 -0.4573,-0.0369 -0.50305,0.36463 0.11915,1.28272 0.20612,1.50192 2.22945,3.50834 4.1452,7.15572 5.84572,10.95235 0.82944,1.66805 0.98916,2.15603 2.04326,3.65179 0.27501,0.39024 1.29385,0.83186 0.90557,1.10964 -42.354935,30.30056 -19.279894,21.0561 -22.374807,12.998 -1.807454,-4.07458 -4.678126,-7.71752 -7.400845,-11.21175 35.089472,-22.59505 19.555402,-21.45558 22.381592,-10.26043 0.33566,1.32962 1.16307,3.34174 1.65323,4.60463 0.59981,1.38617 1.11728,2.8097 1.78088,4.16649 0.22558,0.46124 1.20194,1.03974 0.77802,1.32942 -47.063892,32.16001 -19.47783,20.76782 -23.106741,12.88305 -0.159572,-0.29641 -0.272037,-0.6235 -0.478715,-0.88922 -0.191667,-0.24641 -0.958073,-0.45085 -0.698338,-0.62404 30.167174,-20.11492 19.509474,-20.87462 23.176624,-8.88236 0,0 -23.413587,12.66159 -23.413587,12.66159 z" />
  <path
     style="fill:#000000"
     id="path3645"
     d="m 103.27293,225.09497 c -0.34929,5.28173 0.0504,10.48934 1.39736,15.59997 0.22222,0.52878 0.39893,1.07909 0.66667,1.58635 0.22403,0.42445 0.84322,1.3698 1.07992,0.95229 0.16845,-0.29712 0.42973,-1.17324 0.12609,-1.01685 -19.651333,10.12149 -29.055072,18.04881 -21.6086,11.83548 1.329465,-2.5316 1.934102,-3.87105 -0.345675,-5.77717 -2.70923,-1.1359 -5.213913,-2.5984 -7.74475,-4.08167 -0.462726,-0.39024 -1.617218,-1.41631 -2.204183,-1.72447 -0.255516,-0.13415 -0.549083,-0.29129 -0.83259,-0.23737 -0.173452,0.033 -0.436772,0.53187 -0.280807,0.44912 23.82135,-12.6398 20.08766,-20.79939 23.833511,-10.45849 2.269539,5.9858 5.954344,11.28653 9.699444,16.42894 0.65254,0.75252 1.26195,1.5447 1.95761,2.25755 0.27261,0.27934 2.18979,2.1645 3.02906,2.13894 0.32283,-0.01 0.95624,-0.85043 0.67092,-0.69909 -22.373489,11.86717 -26.977977,19.28056 -21.509429,10.96563 1.107022,-4.86576 0.522067,-10.10572 -0.386177,-14.97806 -0.354364,-3.50445 -2.168253,-6.29523 -3.695425,-9.34453 -0.570003,-0.92585 -1.164166,-2.12302 -2.362501,-2.34071 -0.506019,-0.0919 -1.893774,0.79469 -1.441855,0.54918 7.466465,-4.05618 14.880391,-8.20833 22.320587,-12.3125 -3.05699,3.48634 -2.02983,9.46847 -1.49357,13.70634 0.80931,5.20678 1.15336,7.22221 5.66477,9.84654 5.27997,1.84647 11.05215,1.72713 16.58235,1.87962 1.20136,0.0181 2.40272,0.0363 3.60407,0.0544 0,0 -21.33765,15.4402 -21.33765,15.4402 l 0,0 c -1.20874,-0.0282 -2.41748,-0.0563 -3.62622,-0.0844 -5.920893,-0.2317 -12.211452,-0.0922 -17.603969,-2.87882 -4.489882,-3.02782 -5.987906,-6.58154 -6.648139,-11.94029 -0.807966,-5.29584 -1.198868,-10.65402 0.120797,-15.91055 10.114409,-5.81841 21.993021,-21.57728 29.375161,-9.18456 1.6115,3.27294 3.60413,6.26885 3.95583,10.02509 1.036,5.2614 1.40898,10.79422 1.0557,16.13451 -1.50726,11.27262 -18.651723,21.97703 -27.141583,14.35076 -1.579207,-1.41857 -2.41531,-2.5849 -3.790448,-4.25886 -3.836398,-5.35375 -7.660193,-10.81128 -10.183169,-16.93083 -0.301155,-0.73055 -1.502837,-1.67673 -0.903464,-2.19166 19.43409,-16.69614 15.649023,-20.73416 25.963109,-13.24343 2.638755,1.61051 5.544715,2.72994 8.045625,4.54955 2.64414,2.63229 3.22821,5.3632 2.05485,8.94555 -3.49347,11.79533 -23.796541,23.29779 -28.004413,10.1517 -1.375621,-5.30224 -1.928644,-10.68116 -1.782646,-16.16548 0,0 23.723829,-12.0879 23.723829,-12.0879 z" />
  <path
     style="fill:#000000"
     id="path3670"
     d="m 307.00677,310.02539 c -1.00712,0.95889 -2.05167,1.87585 -3.09284,2.7971 -0.83273,0.73929 -1.65146,1.50472 -2.35154,2.37309 -0.51531,0.67098 -0.34685,1.25722 0.23408,1.81216 0.0389,0.0383 0.42022,0.45072 0.55119,0.46 0.17584,0.0125 0.518,-0.4683 0.36268,-0.3849 -5.20444,2.79454 -6.84206,4.52861 -5.05052,2.69952 0.62925,-0.84071 1.16635,-1.74391 1.76037,-2.6091 0.45643,-0.55797 0.87112,-1.14361 1.30665,-1.71616 0.43913,-0.46085 0.94404,-0.8492 1.39555,-1.2963 0.45549,-0.42096 0.92037,-0.83818 1.3393,-1.29653 0.39446,-0.51353 0.71146,-1.07443 1.01454,-1.64517 0.91335,-2.36449 4.88791,-6.06574 6.81225,-3.78933 0.41925,0.69833 0.38797,1.4638 0.25187,2.23443 -0.13402,0.84568 -0.24449,1.68617 -0.47852,2.51162 -0.33138,0.85735 -0.75171,1.67577 -1.15075,2.50246 -0.27187,0.67315 -0.50736,1.36414 -0.82484,2.01764 -0.31612,0.79118 -0.7421,1.52805 -1.15313,2.27226 -0.35527,0.78695 -0.7636,1.54686 -1.18029,2.3025 -0.41368,0.713 -0.79641,1.41712 -1.32491,2.05359 -0.35304,0.42887 -0.17522,0.22335 -0.53218,0.61767 0,0 -6.13236,2.6009 -6.13236,2.6009 l 0,0 c 0.33544,-0.42526 0.15353,-0.22591 0.54558,-0.5982 0.24308,-0.32626 0.56464,-0.59711 0.79234,-0.93109 0.19671,-0.28852 0.1942,-0.41562 0.35214,-0.72306 0.0602,-0.11721 0.13486,-0.22642 0.2023,-0.33963 0.50776,-0.67733 0.85832,-1.49013 1.21412,-2.2532 0.37358,-0.75207 0.86878,-1.44661 1.14398,-2.24193 0.30902,-0.65456 0.63701,-1.30312 0.84438,-1.99992 0.3312,-0.84467 0.80796,-1.62526 1.18334,-2.45153 0.30299,-0.78326 0.40827,-1.59328 0.50443,-2.42332 0.10806,-0.5524 0.31225,-1.11143 0.0436,-1.65297 -2.13673,-0.69249 0.0108,0.0238 5.58124,-3.22518 0.0446,-0.026 -0.1102,-0.0335 -0.15484,-0.007 -0.0687,0.04 -0.10831,0.11762 -0.1501,0.1852 -0.65789,1.06403 0.33757,-0.40861 -0.32708,0.55778 -0.12292,0.34278 -0.29222,0.58038 -0.45924,0.89279 -0.15891,0.29722 -0.21869,0.6386 -0.5036,0.86129 -0.30417,0.60208 -0.83454,0.96326 -1.26863,1.46189 -0.50828,0.37331 -0.92607,0.86085 -1.4104,1.26269 -0.5798,0.38578 -0.85076,1.13984 -1.36109,1.63296 -0.69566,0.79069 -1.17082,1.74484 -1.76895,2.60848 -1.47115,2.42118 -0.3355,0.70843 -6.29587,4.05745 -0.48471,0.27234 -1.07858,-0.48605 -1.35589,-0.74314 -0.66631,-0.74167 -1.15055,-1.65035 -0.65313,-2.62192 0.59389,-0.98453 1.49493,-1.74316 2.32074,-2.53006 1.02495,-0.91879 2.0739,-1.80945 3.07793,-2.74952 0,0 6.14614,-2.54581 6.14614,-2.54581 z" />
  <path
     style="fill:#000000"
     id="path3672"
     d="m 307.66887,304.51739 c -0.0348,1.52048 -0.0234,3.04161 -0.0256,4.56239 -0.0274,1.47451 0.0724,2.95138 -0.0899,4.41971 -0.14144,0.8843 -0.2449,1.77193 -0.29654,2.66586 -0.25423,-0.31655 0.12698,0.60376 -0.006,0.50229 -0.0749,-0.0571 -0.0223,-0.29864 -0.10853,-0.26079 -1.91309,0.83989 -3.7159,1.91543 -5.61991,2.77569 -0.15304,0.0691 0.2242,-0.25054 0.32623,-0.38393 0.11251,-0.1471 0.21108,-0.30435 0.31662,-0.45653 0.59897,-1.07532 1.27409,-2.10476 1.90308,-3.16224 0.43583,-0.82806 0.98179,-1.59917 1.3661,-2.45306 0.26917,-0.65576 0.55599,-1.30275 0.85192,-1.94655 0.23475,-0.64998 0.45439,-1.30956 0.75443,-1.9331 0.27402,-0.63307 0.45496,-1.29341 0.81128,-1.88912 0.32592,-0.5812 0.67551,-1.13581 0.86523,-1.77821 0.2267,-0.70332 0.43995,-1.39706 0.54382,-2.13063 0.10575,-0.85045 0.0653,-1.70897 0.12982,-2.56164 0.16126,-0.76773 0.25829,-1.54506 0.3804,-2.31911 0.67114,-2.79243 0.27804,-1.17636 6.2179,-3.37229 0.13353,-0.0494 -0.10859,0.2636 -0.17395,0.39008 -0.0897,0.17364 -0.19383,0.33946 -0.29075,0.50919 -0.7692,1.16398 -1.38009,2.41972 -2.03002,3.65154 -0.45502,0.80929 -0.92967,1.60791 -1.36901,2.42582 -0.30012,0.78358 -0.61401,1.56337 -0.90367,2.35114 -0.22145,0.80759 -0.676,1.52338 -0.95032,2.30767 -0.0222,0.43185 -9.3e-4,-2.8e-4 0.0369,-0.0535 0.0369,-0.0519 0.8396,-0.47513 0.91762,-0.52584 -8.61068,5.02909 -5.43334,3.62551 -3.48735,1.2471 0.47399,-0.55043 0.86237,-1.15871 1.24645,-1.77307 0.44981,-0.75378 0.89937,-1.50787 1.40238,-2.22797 0.39764,-0.63348 0.69779,-1.32826 0.98291,-2.01911 0.34738,-0.66932 0.6223,-1.37218 0.88616,-2.0775 0.39268,-0.75919 0.83668,-1.4971 1.31482,-2.20607 1.03222,-2.18711 7.34032,-5.56976 6.24002,-2.36465 -0.19837,0.74035 -0.47248,1.45699 -0.68636,2.19232 -0.2456,0.68368 -0.42986,1.39126 -0.68768,2.07048 -0.2433,0.79864 -0.45629,1.60572 -0.71118,2.40233 -0.24592,0.78786 -0.55865,1.54906 -0.85931,2.31676 -0.35452,0.79146 -0.65684,1.60634 -1.02175,2.39283 -0.27332,0.68527 -0.52742,1.37843 -0.78806,2.06938 -0.27506,0.63148 -0.59661,1.23994 -0.87333,1.87034 -0.31525,0.69648 -0.68358,1.35711 -0.95196,2.07403 -0.2737,0.62021 -0.60321,1.21948 -0.95923,1.79645 -0.31949,0.63673 -0.68658,1.24702 -1.04037,1.86535 -0.41812,0.65532 -0.85852,1.29695 -1.26891,1.95676 -0.32719,0.639 -0.76419,1.20735 -1.17638,1.79167 -0.40078,0.70494 -0.94648,1.30325 -1.47602,1.91033 -0.50164,0.49979 -0.99372,1.00108 -1.41099,1.57483 -0.54326,0.68063 -1.02819,1.40482 -1.54412,2.10561 -0.49428,0.60392 -0.9553,1.24097 -1.32889,1.92687 -0.32669,0.66077 -0.84647,1.18935 -1.2178,1.81875 -0.35013,0.68122 -0.72338,1.34638 -1.03303,2.04762 0,0 -6.07353,2.73993 -6.07353,2.73993 l 0,0 c 0.38797,-0.64957 0.5855,-1.40824 1.04098,-2.02679 0.2778,-0.73472 0.80231,-1.21883 1.18164,-1.88964 0.46741,-0.64558 0.76909,-1.41212 1.30948,-2.01601 0.59514,-0.62809 1.01238,-1.40288 1.53497,-2.09132 0.32876,-0.36387 0.54669,-0.80977 0.8964,-1.15863 0.0779,-0.0777 0.18031,-0.12773 0.25803,-0.20552 0.0845,-0.0846 0.15055,-0.18589 0.22583,-0.27883 0.59505,-0.50009 1.09005,-1.13908 1.54058,-1.76741 0.34469,-0.6252 0.81645,-1.14931 1.19505,-1.74968 0.32947,-0.72445 0.85385,-1.32426 1.24016,-2.01957 0.431,-0.54289 0.74617,-1.20617 1.05171,-1.82159 0.31967,-0.58763 0.69604,-1.13887 0.99223,-1.73564 0.18577,-0.34684 0.25603,-0.70881 0.42029,-1.06513 0.51135,-1.10919 -0.15354,0.40247 0.38226,-0.64066 0.0618,-0.12036 0.0982,-0.25217 0.14726,-0.37825 0.3078,-0.61994 0.5719,-1.24999 0.86527,-1.87468 0.3824,-0.6274 0.54172,-1.38097 0.80088,-2.06407 0.3604,-0.78561 0.70438,-1.57338 1.03075,-2.37509 0.34294,-0.74091 0.62517,-1.50829 0.87765,-2.28326 0.31345,-0.7763 0.53081,-1.59169 0.69439,-2.4109 0.0816,-0.20901 0.19759,-0.40446 0.26773,-0.6176 0.15122,-0.45952 0.18643,-0.96364 0.46018,-1.38266 0.16608,-0.76909 0.50341,-1.46742 0.65526,-2.2386 0.83691,-2.46284 3.01031,-1.80488 6.3677,-3.40384 0.0808,-0.0385 -0.19147,-0.0133 -0.26614,0.0361 -0.0843,0.0558 -0.13588,0.14971 -0.20383,0.22457 -0.4433,0.70838 -0.91144,1.39997 -1.35442,2.11027 -0.35572,0.66752 -0.509,1.43292 -0.86655,2.10437 -0.40484,0.65002 -0.59036,1.42769 -0.96132,2.10007 -0.4761,0.73026 -1.02709,1.41596 -1.3992,2.21155 -0.40822,0.61304 -0.7237,1.28661 -1.23769,1.81855 -1.88804,2.76868 -4.71053,3.90155 -7.81313,5.55252 -0.87337,0.35651 -1.59198,0.46399 -1.77406,-0.68772 0.1169,-0.86649 0.68185,-1.54992 0.9363,-2.37857 0.25256,-0.81879 0.63942,-1.58522 0.86264,-2.41325 0.35364,-0.87573 0.91377,-1.66294 1.397,-2.47121 0.6417,-1.24632 1.28792,-2.48928 1.98644,-3.70393 0.10362,-0.13677 0.21946,-0.26509 0.31086,-0.41031 0.0676,-0.10748 0.0511,-0.28537 0.16381,-0.34394 11.3124,-5.88047 6.53873,-4.70299 5.85663,-2.32965 -0.23257,0.73138 -0.15868,1.5339 -0.4087,2.2689 -0.18228,0.83191 -0.0272,1.70308 -0.13796,2.5477 -0.0694,0.75298 -0.16982,1.5084 -0.50667,2.19609 -0.14332,0.80456 -0.37427,1.26986 -0.77324,1.96046 -0.34607,0.59143 -0.71393,1.1382 -0.83717,1.83458 -0.28984,0.61719 -0.60551,1.22902 -0.77456,1.89285 -0.2278,0.67227 -0.57968,1.29342 -0.8646,1.94251 -0.29821,0.93291 -0.87766,1.70503 -1.3451,2.55792 -0.59486,1.08127 -1.32327,2.08042 -1.89942,3.17241 -1.10449,2.17344 -5.9099,6.93434 -6.95707,4.02653 -0.0589,-0.16355 0.17636,-0.36236 0.0399,-0.51996 0.0378,-0.91372 0.11077,-1.82566 0.2865,-2.72474 0.23568,-1.44394 0.16736,-2.89751 0.16526,-4.35719 -0.002,-1.51209 0.009,-3.02455 -0.0256,-4.53634 0,0 5.93096,-3.02197 5.93096,-3.02197 z" />
  <path
     style="fill:#000000"
     id="path3674"
     d="m 89.209947,323.91463 c -0.749629,-1.20494 -1.363943,-2.4717 -1.77116,-3.83087 -0.270744,-1.1142 -0.319507,-2.26222 -0.344349,-3.40336 -0.03738,-0.8904 -0.221945,-1.71795 -0.622602,-2.50934 -0.375786,-0.58489 -0.980642,-0.879 -1.57114,-1.19402 -0.325343,-0.11939 -0.686279,-0.34848 -1.052232,-0.26073 -0.08897,0.0213 -0.319105,0.17921 -0.239162,0.1347 5.600788,-3.11791 7.30902,-4.32271 5.450296,-3.01844 -3.71e-4,1.03069 0.565414,2.01125 0.942124,2.95327 0.376576,1.00623 0.961539,1.91057 1.337324,2.91527 0.377756,0.70778 0.58648,1.46226 0.702495,2.25112 0.0643,0.76675 0.290373,1.50418 0.406537,2.26393 0.184768,0.67386 0.341106,1.35327 0.581495,2.00977 1.104033,3.2914 0.755021,1.26753 -5.614444,4.33929 -0.43223,-0.55308 -0.562603,-1.24217 -0.661538,-1.91889 0.0085,-0.7337 -0.303583,-1.35594 -0.577572,-2.01091 -0.187777,-0.60984 -0.461726,-1.19452 -0.882512,-1.67749 -0.488332,-0.51396 -0.873456,-1.08019 -1.199102,-1.71149 -0.23419,-0.711 -0.68187,-1.31095 -1.015889,-1.97121 -0.358552,-0.51622 -0.571973,-1.11282 -0.937619,-1.6242 -0.0197,0.004 -0.06315,-0.008 -0.05911,0.0117 0.427638,2.08387 3.806464,-1.90063 5.708799,-2.85273 0.120849,-0.0605 -0.0012,0.27043 0.0062,0.40537 0.0121,0.22092 0.06941,0.71365 0.09309,0.92907 0.07298,0.84109 0.35423,1.64107 0.500689,2.47068 0.144875,0.78014 0.596177,1.43091 0.931249,2.13429 0.37475,0.62889 0.749326,1.25991 1.159812,1.8659 0.188808,0.1947 0.562378,1.12945 0.919117,1.0677 0.04729,-0.008 0.05719,-0.0771 0.08579,-0.11564 -8.863888,4.7442 -5.109647,4.53608 -5.287454,1.34155 -0.175864,-0.85803 -0.230817,-1.73852 -0.404552,-2.59547 -0.24802,-0.74534 -0.298083,-1.53178 -0.459597,-2.29411 -0.154188,-0.65428 -0.375317,-1.29692 -0.682525,-1.89565 -0.238942,-0.69512 -0.702583,-1.22647 -1.132319,-1.80537 -0.542882,-0.5783 -1.041603,-1.16922 -1.459894,-1.8435 -0.430044,-0.75368 -0.75489,-1.55576 -1.124584,-2.33876 -0.274838,-0.68329 -0.47776,-1.3977 -0.793185,-2.06451 -0.414984,-0.78291 -0.839512,-1.56384 -1.290284,-2.32858 -0.566167,-0.92721 -1.03839,-1.89975 -1.465547,-2.8973 -0.355219,-0.71364 -0.759897,-1.4044 -1.083167,-2.13309 -0.259542,-0.57761 -0.674333,-1.04146 -1.061439,-1.53121 -0.477655,-0.45805 -0.864032,-1.02596 -1.162118,-1.61592 -0.344886,-0.53496 -0.664094,-1.08546 -1.019718,-1.61307 -0.292614,-0.58776 -0.636783,-1.13492 -1.005189,-1.67666 -0.048,-0.0504 -0.08236,-0.11892 -0.143993,-0.15134 -0.07303,-0.0384 -0.46371,0.62947 0.03509,0.36609 8.758821,-4.62487 5.567011,-5.29724 5.477621,-2.70904 0.10935,0.91816 0.234163,1.83295 0.303292,2.7555 0.0044,0.88222 0.35973,1.70665 0.659266,2.52383 0.324634,0.85238 0.835912,1.58897 1.365924,2.31989 0.488784,0.47101 0.883751,1.00683 1.299936,1.53762 0.395572,0.63321 0.841898,1.23541 1.187512,1.89782 0.367407,0.55517 0.706695,1.12719 1.081467,1.67683 0.329846,0.61831 0.693727,1.21902 1.023339,1.8385 0.42095,0.56899 0.685282,1.23173 1.120708,1.78979 0.413567,0.61928 0.736664,1.29226 1.107437,1.93802 0.425459,0.55077 0.766649,1.15823 1.142895,1.74334 0.32501,0.67605 0.684346,1.32235 1.090996,1.95185 0.325196,0.57981 0.669081,1.14743 0.958283,1.74698 0.807566,2.83603 -4.799207,5.33986 -6.899609,3.49636 -0.452402,-0.60938 -0.638816,-1.381 -0.849149,-2.10307 -0.230518,-0.75538 -0.146298,-1.56001 -0.411362,-2.30247 -0.367371,-0.65728 -0.752928,-1.34257 -1.376258,-1.78624 -0.661093,-0.46797 -1.228104,-0.9192 -1.632343,-1.63564 -2.16705,-2.31988 4.059857,-6.11815 5.805649,-3.67523 0.338035,0.5755 0.62896,1.17242 0.936359,1.7645 0.274974,0.60653 0.574756,1.20127 0.883962,1.79156 0.429707,0.66323 0.652503,1.42244 0.950099,2.14753 0.368536,0.57101 0.62346,1.20161 0.862854,1.83444 0.261013,0.73398 0.468663,0.13449 -5.84869,3.32468 -0.09032,0.0456 -0.07971,-0.18618 -0.125887,-0.27621 -0.08114,-0.15821 -0.176511,-0.30876 -0.260225,-0.46563 -0.264241,-0.67738 -0.452169,-1.3845 -0.659826,-2.08273 -0.139559,-0.73846 -0.508699,-1.39834 -0.775477,-2.09327 -0.271048,-0.64727 -0.56561,-1.22288 -1.013014,-1.75786 -0.503948,-0.41476 -0.92785,-0.76793 -1.076711,-1.41607 4.272599,-2.76053 5.381441,-5.02983 7.332518,-1.84002 0.639051,0.74289 1.102463,1.59414 1.604373,2.42812 0.414806,0.76544 0.754013,1.56445 1.166014,2.33155 0.311335,0.64084 0.641095,1.27194 0.976919,1.90073 0.28405,0.60517 0.587747,1.20044 0.899793,1.79218 0.242044,0.57805 0.556627,1.13345 0.985106,1.59332 0.450377,0.47912 0.841384,0.99767 1.202055,1.549 0.369511,0.50191 0.819871,0.93032 1.224126,1.40171 0.435787,0.51342 0.996247,0.87613 1.508105,1.30245 0.663164,0.60748 1.400738,1.12654 2.136618,1.64134 1.158728,0.99607 2.39422,1.84188 3.745816,2.55365 2.25944,1.19008 4.58871,2.24765 6.92631,3.2741 2.70843,1.14392 5.48144,2.12708 8.27198,3.04935 2.08271,0.54151 1.01522,0.28124 3.20351,0.77656 0,0 -5.3088,3.67914 -5.3088,3.67914 l 0,0 c -2.23098,-0.5063 -1.14208,-0.23509 -3.26797,-0.80858 -2.80706,-0.93237 -5.59207,-1.93684 -8.31575,-3.09277 -2.36216,-1.03266 -4.71256,-2.09858 -7.003963,-3.28137 -1.374827,-0.73418 -2.638399,-1.60499 -3.854831,-2.57831 -0.751508,-0.52153 -1.486712,-1.06854 -2.177535,-1.66899 -0.558951,-0.43061 -1.109315,-0.8622 -1.575828,-1.39659 -0.436351,-0.48307 -0.887203,-0.95263 -1.270272,-1.48107 -0.348323,-0.52277 -0.726618,-1.01112 -1.155965,-1.4697 -0.436708,-0.52045 -0.810672,-1.09692 -1.063054,-1.72994 -0.311233,-0.59112 -0.616271,-1.18485 -0.897621,-1.79002 -0.334416,-0.62967 -0.663047,-1.26171 -0.968814,-1.9053 -0.402171,-0.76122 -0.745322,-1.54708 -1.138869,-2.31218 -0.490473,-0.83941 -0.977601,-1.66379 -1.607004,-2.41106 -0.174359,-0.27639 -0.355718,-0.59319 -0.623801,-0.79396 -0.306077,-0.22924 -0.454667,-0.0623 -0.369377,-0.11515 1.830898,-1.13476 3.693424,-2.21768 5.540136,-3.32652 -0.694376,-0.62879 0.615942,0.66611 0.672781,0.71028 0.493647,0.59495 0.805506,1.24937 1.113866,1.95617 0.264948,0.71394 0.67179,1.37825 0.806372,2.13607 0.18559,0.65628 0.388834,1.30765 0.599873,1.95341 0.05464,0.0996 0.382121,0.65695 0.363031,0.66985 -1.47079,0.99429 -5.046167,5.76467 -5.771567,3.29227 -0.175837,-0.63756 -0.494733,-1.23502 -0.827886,-1.80406 -0.286087,-0.70741 -0.496473,-1.44875 -0.924665,-2.08889 -0.309236,-0.59119 -0.611713,-1.18572 -0.88564,-1.79334 -0.29197,-0.56296 -0.568538,-1.12962 -0.887566,-1.67782 -1.484227,-2.00724 -0.155723,-0.0517 5.491575,-3.65038 0.04613,-0.0294 -0.08131,-0.13868 -0.12523,-0.10607 -0.0446,0.0331 0.03735,0.10464 0.05735,0.15647 0.02965,0.0768 0.05342,0.15646 0.09159,0.22943 0.05868,0.11219 0.131971,0.21612 0.197956,0.32418 0.35415,0.63422 0.956417,0.96404 1.50345,1.41819 0.656883,0.58292 1.132947,1.32031 1.551545,2.08806 0.309475,0.7628 0.280642,1.55548 0.444025,2.35459 0.156637,0.57472 0.305686,1.21898 0.632293,1.71063 0.197461,0.09 0.164153,0.0977 0.401072,0.10005 0.09243,9.4e-4 0.355024,-0.0654 0.276836,-0.0161 -1.804178,1.13768 -3.681788,2.15629 -5.482826,3.29893 -0.05592,0.0355 0.123571,0.0641 0.189616,0.0593 0.03175,-0.002 0.03747,-0.0515 0.05621,-0.0772 -0.23292,-0.58691 -0.607022,-1.10491 -0.895633,-1.66428 -0.405401,-0.62925 -0.760068,-1.27828 -1.08663,-1.95119 -0.389726,-0.59167 -0.736089,-1.20912 -1.16077,-1.77678 -0.355839,-0.62256 -0.673587,-1.26778 -1.071523,-1.86398 -0.435442,-0.59959 -0.740638,-1.27399 -1.165183,-1.88108 -0.322335,-0.59844 -0.683752,-1.17571 -0.998219,-1.77744 -0.379454,-0.57652 -0.747308,-1.15906 -1.112967,-1.74504 -0.322395,-0.62985 -0.754335,-1.19667 -1.134713,-1.79207 -0.408899,-0.54367 -0.846195,-1.05282 -1.301365,-1.56014 -0.559009,-0.78199 -1.070591,-1.58736 -1.438453,-2.48095 -0.333613,-0.8658 -0.733586,-1.75553 -0.755869,-2.69207 -0.05668,-0.92378 -0.156829,-1.84286 -0.315767,-2.75512 -6.66e-4,-0.005 -0.124798,-0.75838 -0.04296,-0.81724 2.898586,-2.08447 4.530931,-5.48412 6.344977,-3.12875 0.373175,0.54262 0.712753,1.09783 1.010088,1.68529 0.362442,0.55554 0.711206,1.1185 1.058825,1.68391 0.273753,0.55504 0.660394,1.05218 1.092981,1.49263 0.43129,0.53044 0.854212,1.06258 1.144652,1.68773 0.311963,0.73601 0.724688,1.42731 1.067879,2.14939 0.405746,0.97414 0.861205,1.92132 1.412316,2.82273 0.467628,0.77809 0.922958,1.56602 1.349971,2.36494 0.320106,0.66701 0.533891,1.38025 0.787727,2.07361 0.351957,0.76136 0.663573,1.53866 1.084963,2.26617 0.414716,0.65072 0.91777,1.21829 1.426633,1.79796 0.460718,0.60233 0.946555,1.16844 1.201774,1.89633 0.332766,0.64562 0.584036,1.33534 0.755797,2.04074 0.19359,0.75844 0.19568,1.55796 0.459371,2.30413 0.208027,0.87395 0.215802,1.78685 0.435915,2.66192 0.559058,3.69613 -1.935183,3.29041 -6.074745,5.61316 -0.567357,-0.34906 -0.958727,-0.88279 -1.296095,-1.4501 -0.417083,-0.64018 -0.818086,-1.29127 -1.194098,-1.95693 -0.35674,-0.76121 -0.857814,-1.45337 -1.024838,-2.29392 -0.129487,-0.84637 -0.42044,-1.65428 -0.506802,-2.5055 -0.01706,-0.14551 -0.258318,-1.35261 -0.163097,-1.42865 3.635396,-2.903 4.220185,-5.67628 6.072043,-3.52698 0.34441,0.55609 0.611154,1.15072 0.963967,1.70124 0.326541,0.66006 0.780324,1.25602 1.006569,1.96632 0.305866,0.58886 0.689993,1.09655 1.13708,1.58489 0.43495,0.55217 0.785913,1.17095 0.978234,1.85068 0.287395,0.70517 0.663646,1.3786 0.653677,2.1668 0.06834,0.58145 0.14236,1.17086 0.537998,1.63182 -1.946371,1.07469 -3.909963,2.11876 -5.839115,3.22407 -0.02088,0.012 0.187765,0.13352 0.183558,-0.0425 -0.0077,-0.32073 -0.329369,-0.56993 -0.332922,-0.89637 -0.259336,-0.70086 -0.426914,-1.42071 -0.64228,-2.13663 -0.10129,-0.76632 -0.337516,-1.50306 -0.409088,-2.27057 -0.08673,-0.7498 -0.268379,-1.45905 -0.629906,-2.12884 -0.345167,-1.00803 -0.929383,-1.91018 -1.2981,-2.91083 -0.423712,-1.06653 -0.977852,-2.10731 -1.163863,-3.24865 -0.249028,-3.19056 4.964905,-4.85879 7.421339,-3.43721 0.707742,0.37493 1.353466,0.85257 1.779872,1.54638 0.444871,0.88453 0.684823,1.78718 0.755229,2.78019 0.0071,1.08925 0.02139,2.18665 0.248909,3.25681 0.353016,1.32153 0.923318,2.5573 1.715252,3.6775 0,0 -5.765716,3.32542 -5.765716,3.32542 z" />
  <path
     style="fill:#f4f1dd;fill-opacity:1"
     id="path3676"
     d="m 99.437299,345.98474 c 0.570931,1.12219 1.204011,2.21291 1.824951,3.30865 0.3658,0.65156 0.99553,0.97972 1.57958,1.38435 0.39654,0.17765 0.76667,0.39188 1.1553,0.58715 0,0 -5.579646,3.65738 -5.579646,3.65738 l 0,0 c -0.398347,-0.21528 -0.813602,-0.40015 -1.193652,-0.64738 -0.685816,-0.43783 -1.304289,-0.95475 -1.719936,-1.66964 -0.600898,-1.1045 -1.19826,-2.20905 -1.832313,-3.2951 0,0 5.765716,-3.32541 5.765716,-3.32541 z" />
  <path
     style="fill:#ffffff;fill-opacity:0"
     id="path3678"
     d="m 102.19407,347.01713 c 1.05329,0.6859 2.0412,1.44105 2.908,2.35401 0.65252,0.51406 0.99059,1.25168 1.34486,1.97799 0.25191,0.6975 0.42455,1.42138 0.62657,2.13614 0.17517,0.39315 0.31223,0.80089 0.50894,1.18359 0,0 -5.79325,3.30793 -5.79325,3.30793 l 0,0 c -0.21882,-0.42378 -0.37146,-0.87293 -0.57207,-1.30615 -0.18278,-0.68022 -0.37674,-1.35468 -0.57014,-2.02971 -0.32089,-0.672 -0.62571,-1.32831 -1.219707,-1.81094 -0.82943,-0.86633 -1.762484,-1.60142 -2.813747,-2.18527 0,0 5.580544,-3.62759 5.580544,-3.62759 z" />
  <path
     style="fill:#ffffff;fill-opacity:0"
     id="path3680"
     d="m 78.036631,328.29457 c -0.401504,-1.24161 -0.916114,-2.4469 -1.468332,-3.62856 -0.265416,-0.72608 -0.489172,-1.42656 -1.057789,-1.97223 -0.20291,-0.24952 -0.4482,-0.44517 -0.66679,-0.68044 0,0 5.698048,-3.47421 5.698048,-3.47421 l 0,0 c 0.223299,0.22593 0.460967,0.43771 0.665393,0.68155 0.571917,0.63853 0.902936,1.36025 1.143585,2.1799 0.537528,1.20544 1.0245,2.43252 1.500771,3.66336 0,0 -5.814886,3.23063 -5.814886,3.23063 z" />
  <path
     style="fill:#ffffff;fill-opacity:0"
     id="path3682"
     d="m 77.11143,325.707 c -0.622449,-1.17564 -1.030425,-2.44206 -1.52091,-3.67397 -0.140354,-0.37086 -0.414357,-0.63919 -0.663533,-0.93564 0,0 5.715738,-3.42684 5.715738,-3.42684 l 0,0 c 0.28557,0.35426 0.585932,0.69765 0.747514,1.13181 0.456297,1.20892 0.820622,2.46255 1.486907,3.57923 0,0 -5.765716,3.32541 -5.765716,3.32541 z" />
  <path
     style="fill:#f4f1dd;fill-opacity:1"
     id="path3686"
     d="m 100.34406,353.80066 c -0.931563,-0.65419 -1.803442,-1.39198 -2.623237,-2.18053 0,0 5.646037,-3.4751 5.646037,-3.4751 l 0,0 c 0.78518,0.75483 1.60834,1.48414 2.55775,2.02805 0,0 -5.58055,3.62758 -5.58055,3.62758 z" />
  <path
     style="fill:#f4f1dd;fill-opacity:1"
     id="path3688"
     d="m 97.655503,352.45638 c -0.760368,-0.40492 -0.373318,-0.18455 -1.158471,-0.66576 0,0 5.551838,-3.59781 5.551838,-3.59781 l 0,0 c 0.78713,0.4464 0.39124,0.2347 1.18718,0.63599 0,0 -5.580547,3.62758 -5.580547,3.62758 z" />
  <path
     sodipodi:type="arc"
     style="fill:#000000;fill-opacity:1"
     id="path3702"
     sodipodi:cx="192.68008"
     sodipodi:cy="79.536545"
     sodipodi:rx="53.323093"
     sodipodi:ry="23.524895"
     d="m 246.00318,79.536545 a 53.323093,23.524895 0 1 1 -106.64619,0 53.323093,23.524895 0 1 1 106.64619,0 z" />
  <path
     sodipodi:type="arc"
     style="fill:#000000;fill-opacity:1"
     id="path3704"
     sodipodi:cx="238.16154"
     sodipodi:cy="105.52596"
     sodipodi:rx="25.76536"
     sodipodi:ry="10.53019"
     d="m 263.9269,105.52596 a 25.76536,10.53019 0 1 1 -51.53072,0 25.76536,10.53019 0 1 1 51.53072,0 z" />
  <path
     sodipodi:type="arc"
     style="fill:#000000;fill-opacity:1"
     id="path3717"
     sodipodi:cx="264.59906"
     sodipodi:cy="108.66261"
     sodipodi:rx="34.279133"
     sodipodi:ry="35.623409"
     d="m 298.87819,108.66261 a 34.279133,35.623409 0 1 1 -68.55826,0 34.279133,35.623409 0 1 1 68.55826,0 z"
     transform="translate(-38.536017,-6.2733051)" />
  <path
     sodipodi:type="arc"
     style="fill:#000000;fill-opacity:1"
     id="path3719"
     sodipodi:cx="241.97034"
     sodipodi:cy="110.67902"
     sodipodi:rx="4.0328388"
     sodipodi:ry="0.89618647"
     d="m 246.00318,110.67902 a 4.0328388,0.89618647 0 1 1 -8.06568,0 4.0328388,0.89618647 0 1 1 8.06568,0 z" />
  <flowRoot
     xml:space="preserve"
     id="flowRoot2923"
     style="fill:black;stroke:none;stroke-opacity:1;stroke-width:1px;stroke-linejoin:miter;stroke-linecap:butt;fill-opacity:1;font-family:Bitstream Vera Sans;font-style:normal;font-weight:normal;font-size:40px"><flowRegion
       id="flowRegion2925"><rect
         id="rect2927"
         width="79.195961"
         height="154.14928"
         x="161.92746"
         y="131.67201" /></flowRegion><flowPara
       id="flowPara2929" /></flowRoot>  <text
     xml:space="preserve"
     style="font-size:40px;font-style:normal;font-weight:normal;fill:#000000;fill-opacity:1;stroke:none;font-family:Bitstream Vera Sans"
     x="178.1909"
     y="152.1781"
     id="text2931"><tspan
       sodipodi:role="line"
       id="tspan2933"
       x="178.1909"
       y="152.1781" /></text>
  <g
     inkscape:groupmode="layer"
     id="layer1"
     inkscape:label="text" />
  <flowRoot
     xml:space="preserve"
     id="flowRoot2936"
     style="font-size:40px;font-style:normal;font-weight:normal;fill:#000000;fill-opacity:1;stroke:none;font-family:Bitstream Vera Sans"><flowRegion
       id="flowRegion2938"><rect
         id="rect2940"
         width="108.89445"
         height="195.86858"
         x="144.24979"
         y="109.04459" /></flowRegion><flowPara
       id="flowPara2942">Tr</flowPara></flowRoot>  <flowRoot
     xml:space="preserve"
     id="flowRoot2944"
     style="font-size:40px;font-style:normal;font-weight:normal;text-align:center;text-anchor:middle;fill:#ffcc00;fill-opacity:1;stroke:none;font-family:Bitstream Vera Sans"><flowRegion
       id="flowRegion2946"><rect
         id="rect2948"
         width="154.14926"
         height="110.30865"
         x="116.67262"
         y="109.75169"
         style="text-align:center;text-anchor:middle;fill:#ffcc00" /></flowRegion><flowPara
       id="flowPara2950"
       style="font-size:40px">Try </flowPara><flowPara
       id="flowPara2952"
       style="font-size:40px">again!!</flowPara><flowPara
       id="flowPara2954" /></flowRoot>  <text
     xml:space="preserve"
     style="font-size:40px;font-style:normal;font-weight:normal;fill:#000000;fill-opacity:1;stroke:none;font-family:Bitstream Vera Sans"
     x="257.38687"
     y="193.8974"
     id="text2956"><tspan
       sodipodi:role="line"
       id="tspan2958"
       x="257.38687"
       y="193.8974" /><tspan
       sodipodi:role="line"
       id="tspan2960"
       x="257.38687"
       y="243.8974" /></text>
  <flowRoot
     xml:space="preserve"
     id="flowRoot2962"
     style="fill:black;stroke:none;stroke-opacity:1;stroke-width:1px;stroke-linejoin:miter;stroke-linecap:butt;fill-opacity:1;font-family:Bitstream Vera Sans;font-style:normal;font-weight:normal;font-size:10"><flowRegion
       id="flowRegion2964"><rect
         id="rect2966"
         width="165.46298"
         height="95.459412"
         x="115.96552"
         y="229.95985"
         style="font-size:10" /></flowRegion><flowPara
       id="flowPara2968" /></flowRoot>  <text
     xml:space="preserve"
     style="font-size:40px;font-style:normal;font-weight:normal;fill:#ffcc00;fill-opacity:1;stroke:none;font-family:Bitstream Vera Sans"
     x="175.36247"
     y="256.1228"
     id="text2970"><tspan
       sodipodi:role="line"
       id="tspan2972"
       x="175.36247"
       y="256.1228" /></text>
  <flowRoot
     xml:space="preserve"
     id="flowRoot2976"
     style="font-size:12px;font-style:normal;font-weight:normal;text-align:center;text-anchor:middle;fill:#ffcc00;fill-opacity:1;stroke:none;font-family:Bitstream Vera Sans"><flowRegion
       id="flowRegion2978"><rect
         id="rect2980"
         width="161.22035"
         height="60.811184"
         x="116.67262"
         y="222.18167"
         style="font-size:12px;text-align:center;text-anchor:middle;fill:#ffcc00" /></flowRegion><flowPara
       id="flowPara2982"
       style="font-size:16">Select a new theme from the Game's menu.</flowPara></flowRoot></svg>
